<?xml version="1.0" encoding="UTF-8" standalone="no"?>
<!-- Created with Inkscape (http://www.inkscape.org/) -->

<svg
   version="1.1"
   id="svg9"
   xml:space="preserve"
   width="127.09082mm"
   height="80.162086mm"
   viewBox="0 0 480.34326 302.9748"
   sodipodi:docname="KennlinieTheorie.svg"
   inkscape:version="1.1.1 (3bf5ae0d25, 2021-09-20)"
   xmlns:inkscape="http://www.inkscape.org/namespaces/inkscape"
   xmlns:sodipodi="http://sodipodi.sourceforge.net/DTD/sodipodi-0.dtd"
   xmlns="http://www.w3.org/2000/svg"
   xmlns:svg="http://www.w3.org/2000/svg"><defs
     id="defs13"><clipPath
       clipPathUnits="userSpaceOnUse"
       id="clipPath253"><path
         d="m 114.42,712.45996 h 17.7 v 11.88 h -17.7 z"
         id="path251" /></clipPath><clipPath
       clipPathUnits="userSpaceOnUse"
       id="clipPath499"><path
         d="m 326.16,195.98 h 3.96001 v 24.24001 H 326.16 Z"
         id="path497" /></clipPath></defs><sodipodi:namedview
     id="namedview11"
     pagecolor="#505050"
     bordercolor="#ffffff"
     borderopacity="1"
     inkscape:pageshadow="0"
     inkscape:pageopacity="0"
     inkscape:pagecheckerboard="1"
     showgrid="false"
     units="mm"
     fit-margin-top="5"
     lock-margins="true"
     fit-margin-left="5"
     fit-margin-right="5"
     fit-margin-bottom="5"
     inkscape:zoom="0.74573726"
     inkscape:cx="208.51848"
     inkscape:cy="219.9166"
     inkscape:window-width="1368"
     inkscape:window-height="842"
     inkscape:window-x="-6"
     inkscape:window-y="-6"
     inkscape:window-maximized="1"
     inkscape:current-layer="g15"
     inkscape:document-units="mm" /><g
     id="g15"
     inkscape:groupmode="layer"
     inkscape:label="V504"
     transform="matrix(1.3333333,0,0,-1.3333333,-128.58236,983.10382)"><path
       d="M 121.68001,706.57996 H 123 l 4.02,-6.41999 -1.31999,-0.83996 -4.02,6.47998 H 123"
       style="fill:#000000;fill-opacity:1;fill-rule:nonzero;stroke:none"
       id="path103" /><path
       d="m 121.68001,706.57996 0.78,-0.53998 0.53999,0.53998"
       style="fill:#000000;fill-opacity:1;fill-rule:nonzero;stroke:none"
       id="path105" /><path
       d="m 118.14,699.85999 -0.48,0.29998 4.02001,6.41999 1.31999,-0.77997 -4.02,-6.47998 -0.84,0.53998"
       style="fill:#000000;fill-opacity:1;fill-rule:nonzero;stroke:none"
       id="path107" /><path
       d="M 122.46001,548.77997 123,548 v 156.95996 h -1.31999 V 548 l 0.78,-0.84003 -0.78,0.84003 v -0.84003 h 0.78"
       style="fill:#000000;fill-opacity:1;fill-rule:nonzero;stroke:none"
       id="path109" /><path
       d="m 429.95999,548 v 0.77997 H 122.46001 v -1.62 H 429.95999 V 548"
       style="fill:#000000;fill-opacity:1;fill-rule:nonzero;stroke:none"
       id="path111" /><path
       d="m 431.57999,547.45996 v 1.32001 l -6.18,4.08002 -0.77999,-1.38001 6.18002,-4.02002 v 1.32001"
       style="fill:#000000;fill-opacity:1;fill-rule:nonzero;stroke:none"
       id="path113" /><path
       d="M 431.57999,547.45996 431.34,548 l 0.23999,0.77997"
       style="fill:#000000;fill-opacity:1;fill-rule:nonzero;stroke:none"
       id="path115" /><path
       d="m 424.85999,543.97998 0.54,-0.83997 6.18,4.31995 -0.77997,1.32001 -6.18002,-4.26001 0.23999,-0.53998"
       style="fill:#000000;fill-opacity:1;fill-rule:nonzero;stroke:none"
       id="path117" /><path
       d="M 122.46001,611.53998 H 124.92 m 3.72,0 h 2.7 m 3.78,0 h 2.4 m 3.78,0 h 2.7 m 3.78,0 h 2.39999 m 4.02001,0 h 2.46 m 3.71999,0 H 163.08 m 3.78,0 h 2.39999 m 3.78,0 h 2.7 m 3.78,0 H 182.22 m 3.72,0 h 2.46001 m 3.77998,0 h 2.64 m 3.78002,0 H 201.06 m 4.02,0 h 2.4 m 3.77999,0 h 2.7 m 3.78,0 H 220.14 m 3.78,0 h 2.7 m 3.72,0 h 2.69999 m 3.78,0 H 239.22 m 3.78,0 h 2.7 m 3.78,0 h 2.39999 m 4.02002,0 h 2.45998 m 3.72,0 H 264.78 m 3.78,0 h 2.39999"
       style="fill:none;stroke:#000000;stroke-width:0.06;stroke-linecap:round;stroke-linejoin:round;stroke-miterlimit:10;stroke-dasharray:none;stroke-opacity:1"
       id="path119" /><path
       d="m 273.41998,611.53998 v 2.94 l 0.24002,-0.23999 h 0.84 V 613.94 h 0.23999 l 0.30002,-0.23999 H 275.28 v -0.29999 l 0.29999,-0.24005 0.24002,-0.29998 v -0.53998 L 276.12,612.07996 V 611 h -0.29999 v -0.78003 h -0.24002 v -0.29999 H 275.28 v -0.23999 h -0.23999 V 609.38 h -0.30002 L 274.5,609.14001 h -0.29999 l -0.24002,-0.30004 h -1.38 v 0.30004 h -0.53998 L 271.80002,609.38 H 271.5 v 0.29999 h -0.24002 v 0.23999 h -0.29999 v 0.29999 L 270.72,610.45996 V 611 l -0.30002,0.29999 v 0.77997 H 270.72 v 0.78003 h 0.23999 v 0.29998 l 0.29999,0.24005 v 0.29999 H 271.5 l 0.30002,0.23999 h 0.23999 v 0.29999 H 273.12 v 0.23999 h 0.29998 v -2.94"
       style="fill:#000000;fill-opacity:1;fill-rule:evenodd;stroke:none"
       id="path121" /><path
       d="m 274.20001,675.38 -0.78003,0.53998 H 122.46001 v -1.38 h 150.95997 l -0.83999,0.84002 h 1.62002 v 0.53998 h -0.78003"
       style="fill:#000000;fill-opacity:1;fill-rule:nonzero;stroke:none"
       id="path123" /><path
       d="m 273.41998,548 h 0.78003 v 127.38 h -1.62002 V 548 h 0.83999"
       style="fill:#000000;fill-opacity:1;fill-rule:nonzero;stroke:none"
       id="path125" /><path
       d="m 228.72,675.91998 h -3.18001 v -1.38 l 2.94001,-0.23999 h 0.24"
       style="fill:#000000;fill-opacity:1;fill-rule:nonzero;stroke:none"
       id="path127" /><path
       d="m 233.58,675.38 -2.16,0.24 h -1.08 v -1.32001 L 231.17999,674 233.34,673.76001"
       style="fill:#000000;fill-opacity:1;fill-rule:nonzero;stroke:none"
       id="path129" /><path
       d="m 238.43999,674 -1.92,0.53998 -1.31999,0.29999 -0.24001,-1.38001 1.32001,-0.53998 1.62001,-0.53998"
       style="fill:#000000;fill-opacity:1;fill-rule:nonzero;stroke:none"
       id="path131" /><path
       d="m 242.75999,672.14001 -1.38,0.77997 -1.62,0.53998 -0.53999,-1.61999 1.62,-0.53998 1.38,-0.53998"
       style="fill:#000000;fill-opacity:1;fill-rule:nonzero;stroke:none"
       id="path133" /><path
       d="m 247.01999,669.67999 -1.31999,0.83997 -1.38001,0.78003 -0.78,-1.32001 1.32001,-0.83997 1.37999,-0.78002"
       style="fill:#000000;fill-opacity:1;fill-rule:nonzero;stroke:none"
       id="path135" /><path
       d="m 250.8,666.5 -1.08,1.07996 -1.31999,1.02008 -1.08002,-1.32007 1.32001,-1.07996 1.08,-0.78003"
       style="fill:#000000;fill-opacity:1;fill-rule:nonzero;stroke:none"
       id="path137" /><path
       d="m 254.03999,662.95996 -0.83999,1.08002 -1.32001,1.38 -1.07999,-1.08001 1.07999,-1.38001 1.08,-1.07996"
       style="fill:#000000;fill-opacity:1;fill-rule:nonzero;stroke:none"
       id="path139" /><path
       d="m 256.97998,658.94 -0.77997,1.07996 -1.08001,1.62005 -1.38001,-1.08001 1.38001,-1.38001 0.53999,-1.07995"
       style="fill:#000000;fill-opacity:1;fill-rule:nonzero;stroke:none"
       id="path141" /><path
       d="m 259.44,654.91998 -0.30002,0.78003 -1.31997,1.85999 -1.38001,-0.78003 1.38001,-1.85999 0.23999,-0.84002"
       style="fill:#000000;fill-opacity:1;fill-rule:nonzero;stroke:none"
       id="path143" /><path
       d="m 261.84,650.60004 -0.29999,0.53997 -1.32001,2.39997 -1.32001,-0.77997 1.32001,-2.46002 V 650.06"
       style="fill:#000000;fill-opacity:1;fill-rule:nonzero;stroke:none"
       id="path145" /><path
       d="M 263.70001,646.27997 262.38,645.44 l -1.38,3 1.38,0.77997"
       style="fill:#000000;fill-opacity:1;fill-rule:nonzero;stroke:none"
       id="path147" /><path
       d="M 265.32001,641.71997 264,641.17999 l -1.08002,2.94001 1.32001,0.53997"
       style="fill:#000000;fill-opacity:1;fill-rule:nonzero;stroke:none"
       id="path149" /><path
       d="m 266.94,637.10004 -1.32,-0.54004 -1.07999,3.23999 1.61999,0.53998"
       style="fill:#000000;fill-opacity:1;fill-rule:nonzero;stroke:none"
       id="path151" /><path
       d="m 268.56,632.53998 -0.78,2.70001 -0.30002,0.53998 -1.31998,-0.53998 v -0.53998 l 0.78,-2.40002"
       style="fill:#000000;fill-opacity:1;fill-rule:nonzero;stroke:none"
       id="path153" /><path
       d="m 269.63998,627.97998 -1.31997,-0.29999 -0.84003,3 1.32004,0.53998"
       style="fill:#000000;fill-opacity:1;fill-rule:nonzero;stroke:none"
       id="path155" /><path
       d="m 270.95999,623.35999 v 0.29998 l -0.78,2.94007 -1.61999,-0.54004 0.78,-2.70001 0.29998,-0.23999"
       style="fill:#000000;fill-opacity:1;fill-rule:nonzero;stroke:none"
       id="path157" /><path
       d="m 272.34,618.79999 -1.62,-0.23999 -0.84,2.94 1.62,0.53998"
       style="fill:#000000;fill-opacity:1;fill-rule:nonzero;stroke:none"
       id="path159" /><path
       d="m 273.41998,614.23999 -1.61996,-0.53998 -0.54004,3.23999 1.32001,0.23999"
       style="fill:#000000;fill-opacity:1;fill-rule:nonzero;stroke:none"
       id="path161" /><path
       d="M 273.95999,611.77997 V 612.62 l -1.61999,-0.29999 0.23999,-0.78003"
       style="fill:#000000;fill-opacity:1;fill-rule:nonzero;stroke:none"
       id="path163" /><path
       d="M 317.82001,547.45996 318.06,547.15997 H 321 v 1.62 h -3.17999"
       style="fill:#000000;fill-opacity:1;fill-rule:nonzero;stroke:none"
       id="path165" /><path
       d="m 312.95999,548 2.16001,-0.29999 1.08001,-0.24005 v 1.62006 h -0.84002 l -2.15998,0.53998"
       style="fill:#000000;fill-opacity:1;fill-rule:nonzero;stroke:none"
       id="path167" /><path
       d="m 308.10001,549.32001 1.91998,-0.54004 1.32001,-0.53998 0.23999,1.62 -1.32001,0.29998 -1.62,0.54004"
       style="fill:#000000;fill-opacity:1;fill-rule:nonzero;stroke:none"
       id="path169" /><path
       d="m 303.78,551.23999 1.38,-0.83997 1.62,-0.54003 0.54001,1.38 -1.62,0.53998 -1.38,0.78003"
       style="fill:#000000;fill-opacity:1;fill-rule:nonzero;stroke:none"
       id="path171" /><path
       d="m 299.51999,553.64001 1.32001,-0.78002 1.32,-0.84003 0.84,1.38006 -1.32001,0.77997 -1.37997,0.83997"
       style="fill:#000000;fill-opacity:1;fill-rule:nonzero;stroke:none"
       id="path173" /><path
       d="m 295.73999,556.88 1.08002,-1.08001 1.31997,-1.08002 1.08002,1.08002 -1.32001,1.08001 -1.07998,1.07996"
       style="fill:#000000;fill-opacity:1;fill-rule:nonzero;stroke:none"
       id="path175" /><path
       d="m 292.5,560.35999 0.84,-1.08002 1.32,-1.32001 1.07999,1.08002 -1.07999,1.32001 -0.83999,1.08001"
       style="fill:#000000;fill-opacity:1;fill-rule:nonzero;stroke:none"
       id="path177" /><path
       d="m 289.56,564.14001 0.78,-1.08001 1.07998,-1.32001 1.38004,0.77997 -1.08002,1.62005 -0.84,1.07996"
       style="fill:#000000;fill-opacity:1;fill-rule:nonzero;stroke:none"
       id="path179" /><path
       d="m 287.10001,568.45996 0.29998,-1.07996 1.32001,-1.86004 1.38001,1.08008 L 288.72,568.15997 288.47998,569"
       style="fill:#000000;fill-opacity:1;fill-rule:nonzero;stroke:none"
       id="path181" /><path
       d="M 284.70001,572.47998 285,572.23999 l 1.32001,-2.46002 1.31997,0.84003 -1.31997,2.15997 v 0.54004"
       style="fill:#000000;fill-opacity:1;fill-rule:nonzero;stroke:none"
       id="path183" /><path
       d="m 282.84,577.10004 1.32,0.53997 1.31998,-3 -1.31998,-0.53997"
       style="fill:#000000;fill-opacity:1;fill-rule:nonzero;stroke:none"
       id="path185" /><path
       d="m 281.22,581.35999 1.32001,0.84002 1.07999,-3.24005 -1.31998,-0.53998"
       style="fill:#000000;fill-opacity:1;fill-rule:nonzero;stroke:none"
       id="path187" /><path
       d="m 279.60001,585.97998 1.31997,0.53998 1.08002,-3 -1.32001,-0.53998"
       style="fill:#000000;fill-opacity:1;fill-rule:nonzero;stroke:none"
       id="path189" /><path
       d="m 278.22,590.53998 0.53998,-2.39997 0.30002,-0.53997 1.32,0.53997 V 588.38 l -0.77999,2.70002"
       style="fill:#000000;fill-opacity:1;fill-rule:nonzero;stroke:none"
       id="path191" /><path
       d="m 276.89999,595.10004 1.32001,0.53997 1.08002,-2.94 -1.62003,-0.54004"
       style="fill:#000000;fill-opacity:1;fill-rule:nonzero;stroke:none"
       id="path193" /><path
       d="m 275.57999,599.71997 v -0.29999 l 0.78,-2.70001 1.61999,0.54004 -0.84,2.69995 -0.23999,0.30005"
       style="fill:#000000;fill-opacity:1;fill-rule:nonzero;stroke:none"
       id="path195" /><path
       d="m 274.20001,604.27997 1.62,0.54004 0.83999,-3 -1.61999,-0.54004"
       style="fill:#000000;fill-opacity:1;fill-rule:nonzero;stroke:none"
       id="path197" /><path
       d="m 273.12,609.14001 1.61999,0.23999 0.84,-2.94 -1.62,-0.53998"
       style="fill:#000000;fill-opacity:1;fill-rule:nonzero;stroke:none"
       id="path199" /><path
       d="m 272.57999,611.53998 0.30001,-1.08002 1.32001,0.54004 -0.24002,0.77997"
       style="fill:#000000;fill-opacity:1;fill-rule:nonzero;stroke:none"
       id="path201" /><text
       transform="matrix(0.99100755,0,0,-1,194.58,529.64026)"
       style="font-variant:normal;font-weight:normal;font-stretch:normal;font-size:11.3095px;font-family:Symbol;-inkscape-font-specification:SymbolMT;writing-mode:lr-tb;fill:#000000;fill-opacity:1;fill-rule:nonzero;stroke:none"
       id="text205"><tspan
         x="0"
         y="0"
         id="tspan203">ζ</tspan></text><text
       transform="matrix(1,0,0,-0.97662303,335.03998,529.64026)"
       style="font-variant:normal;font-weight:normal;font-stretch:normal;font-size:11.5802px;font-family:Arial;-inkscape-font-specification:ArialMT;writing-mode:lr-tb;fill:#000000;fill-opacity:1;fill-rule:nonzero;stroke:none"
       id="text209"><tspan
         x="0 6.1779208"
         y="0"
         sodipodi:role="line"
         id="tspan207">e </tspan></text><text
       transform="matrix(0.99100755,0,0,-1,347.39999,529.64026)"
       style="font-variant:normal;font-weight:normal;font-stretch:normal;font-size:11.3095px;font-family:Symbol;-inkscape-font-specification:SymbolMT;writing-mode:lr-tb;fill:#000000;fill-opacity:1;fill-rule:nonzero;stroke:none"
       id="text213"><tspan
         x="0"
         y="0"
         id="tspan211">φ</tspan></text><text
       transform="matrix(1,0,0,-0.97662303,111.72,672.38031)"
       style="font-variant:normal;font-weight:normal;font-stretch:normal;font-size:11.5802px;font-family:Arial;-inkscape-font-specification:ArialMT;writing-mode:lr-tb;fill:#000000;fill-opacity:1;fill-rule:nonzero;stroke:none"
       id="text217"><tspan
         x="0"
         y="0"
         id="tspan215">1</tspan></text><text
       transform="matrix(1,0,0,-0.97662303,435.41907,543.14101)"
       style="font-variant:normal;font-weight:normal;font-stretch:normal;font-size:11.5802px;font-family:Arial;-inkscape-font-specification:ArialMT;writing-mode:lr-tb;fill:#000000;fill-opacity:1;fill-rule:nonzero;stroke:none"
       id="text221"><tspan
         x="0"
         y="0"
         id="tspan219">E</tspan></text><text
       transform="matrix(1,0,0,-0.97662303,316.49974,575.42059)"
       style="font-variant:normal;font-weight:normal;font-stretch:normal;font-size:11.5802px;font-family:Arial;-inkscape-font-specification:ArialMT;writing-mode:lr-tb;fill:#000000;fill-opacity:1;fill-rule:nonzero;stroke:none"
       id="text225"><tspan
         x="0 6.7268224 9.9691629 16.38332"
         y="0"
         sodipodi:role="line"
         id="tspan223">T &gt;&gt;</tspan></text><text
       transform="matrix(1,0,0,-0.97662303,342.60477,575.42059)"
       style="font-variant:normal;font-weight:normal;font-stretch:normal;font-size:11.5802px;font-family:Arial;-inkscape-font-specification:ArialMT;writing-mode:lr-tb;fill:#000000;fill-opacity:1;fill-rule:nonzero;stroke:none"
       id="text229"><tspan
         x="0"
         y="0"
         id="tspan227">0</tspan></text><text
       transform="matrix(1,0,0,-0.97662303,307.32018,643.28101)"
       style="font-variant:normal;font-weight:normal;font-stretch:normal;font-size:11.5802px;font-family:Arial;-inkscape-font-specification:ArialMT;writing-mode:lr-tb;fill:#000000;fill-opacity:1;fill-rule:nonzero;stroke:none"
       id="text233"><tspan
         x="0 6.7223063 9.9647617"
         y="0"
         sodipodi:role="line"
         id="tspan231">T =</tspan></text><text
       transform="matrix(1,0,0,-0.97662303,326.94737,643.28101)"
       style="font-variant:normal;font-weight:normal;font-stretch:normal;font-size:11.5802px;font-family:Arial;-inkscape-font-specification:ArialMT;writing-mode:lr-tb;fill:#000000;fill-opacity:1;fill-rule:nonzero;stroke:none"
       id="text237"><tspan
         x="0"
         y="0"
         id="tspan235">0</tspan></text><text
       transform="matrix(1,0,0,-0.97662303,114.42068,714.92104)"
       style="font-variant:normal;font-weight:normal;font-stretch:normal;font-size:11.5802px;font-family:Arial;-inkscape-font-specification:ArialMT;writing-mode:lr-tb;fill:#000000;fill-opacity:1;fill-rule:nonzero;stroke:none"
       id="text241"><tspan
         x="0 3.242456"
         y="0"
         sodipodi:role="line"
         id="tspan239">f(</tspan></text><text
       transform="matrix(1,0,0,-0.97662303,121.14296,714.92104)"
       style="font-variant:normal;font-weight:normal;font-stretch:normal;font-size:11.5802px;font-family:Arial;-inkscape-font-specification:ArialMT;writing-mode:lr-tb;fill:#000000;fill-opacity:1;fill-rule:nonzero;stroke:none"
       id="text245"><tspan
         x="0"
         y="0"
         id="tspan243">E</tspan></text><g
       id="g247"><g
         id="g249"
         clip-path="url(#clipPath253)"><text
           transform="matrix(1,0,0,-0.97662303,128.7,714.92029)"
           style="font-variant:normal;font-weight:normal;font-stretch:normal;font-size:11.5802px;font-family:Arial;-inkscape-font-specification:ArialMT;writing-mode:lr-tb;fill:#000000;fill-opacity:1;fill-rule:nonzero;stroke:none"
           id="text257"><tspan
             x="0"
             y="0"
             id="tspan255">)</tspan></text></g></g><path
       d="m 281.22,647.60004 3.23999,1.61993 v -3.23999 l -3.23999,1.62006"
       style="fill:#000000;fill-opacity:1;fill-rule:evenodd;stroke:none"
       id="path259" /><path
       d="M 284.45999,647.60004 H 305.16"
       style="fill:none;stroke:#000000;stroke-width:0.06;stroke-linecap:round;stroke-linejoin:round;stroke-miterlimit:10;stroke-dasharray:none;stroke-opacity:1"
       id="path261" /><path
       d="m 273.41998,532.10004 3.24002,1.61993 v -3.23999 l -3.24002,1.62006"
       style="fill:#000000;fill-opacity:1;fill-rule:evenodd;stroke:none"
       id="path263" /><path
       d="m 276.66,532.10004 h 56.22"
       style="fill:none;stroke:#000000;stroke-width:0.06;stroke-linecap:round;stroke-linejoin:round;stroke-miterlimit:10;stroke-dasharray:none;stroke-opacity:1"
       id="path265" /><path
       d="m 122.46001,532.10004 3.24,1.61993 v -3.23999 l -3.24,1.62006"
       style="fill:#000000;fill-opacity:1;fill-rule:evenodd;stroke:none"
       id="path267" /><path
       d="M 125.70001,532.10004 H 192.72"
       style="fill:none;stroke:#000000;stroke-width:0.06;stroke-linecap:round;stroke-linejoin:round;stroke-miterlimit:10;stroke-dasharray:none;stroke-opacity:1"
       id="path269" /><path
       d="M 273.41998,532.10004 269.88,530.47998 v 3.23999 l 3.53998,-1.61993"
       style="fill:#000000;fill-opacity:1;fill-rule:evenodd;stroke:none"
       id="path271" /><path
       d="M 269.88,532.10004 H 202.92"
       style="fill:none;stroke:#000000;stroke-width:0.06;stroke-linecap:round;stroke-linejoin:round;stroke-miterlimit:10;stroke-dasharray:none;stroke-opacity:1"
       id="path273" /><path
       d="m 412.5,532.10004 -3.48001,-1.62006 v 3.23999 L 412.5,532.10004"
       style="fill:#000000;fill-opacity:1;fill-rule:evenodd;stroke:none"
       id="path275" /><path
       d="m 409.01999,532.10004 h -51.12"
       style="fill:none;stroke:#000000;stroke-width:0.06;stroke-linecap:round;stroke-linejoin:round;stroke-miterlimit:10;stroke-dasharray:none;stroke-opacity:1"
       id="path277" /><path
       d="m 288.72,580.03998 3.23999,1.86004 v -3.48004 l -3.23999,1.62"
       style="fill:#000000;fill-opacity:1;fill-rule:evenodd;stroke:none"
       id="path279" /><path
       d="m 291.95999,580.03998 h 20.45999 m 96.06,-28.79999 v -6.72003"
       style="fill:none;stroke:#000000;stroke-width:0.06;stroke-linecap:round;stroke-linejoin:round;stroke-miterlimit:10;stroke-dasharray:none;stroke-opacity:1"
       id="path281" /><text
       transform="matrix(0.99856915,0,0,-1,111.48,613.40027)"
       style="font-variant:normal;font-weight:normal;font-stretch:normal;font-size:9.1554px;font-family:Arial;-inkscape-font-specification:ArialMT;writing-mode:lr-tb;fill:#000000;fill-opacity:1;fill-rule:nonzero;stroke:none"
       id="text285"><tspan
         x="0"
         y="0"
         id="tspan283">1</tspan></text><text
       transform="matrix(0.99856915,0,0,-1,111.48,603.44006)"
       style="font-variant:normal;font-weight:normal;font-stretch:normal;font-size:9.1554px;font-family:Arial;-inkscape-font-specification:ArialMT;writing-mode:lr-tb;fill:#000000;fill-opacity:1;fill-rule:nonzero;stroke:none"
       id="text289"><tspan
         x="0"
         y="0"
         id="tspan287">2</tspan></text><path
       d="m 110.64,611.53998 h 6.72 m 5.10001,-71.33997 v -15.90002 m 150.95997,15.90002 v -15.90002 m 135.06,15.90002 v -15.90002"
       style="fill:none;stroke:#000000;stroke-width:0.06;stroke-linecap:round;stroke-linejoin:round;stroke-miterlimit:10;stroke-dasharray:none;stroke-opacity:1"
       id="path291" /><text
       transform="matrix(1,0,0,-0.97197532,341.22,525.86041)"
       style="font-variant:normal;font-weight:normal;font-stretch:normal;font-size:9.1423px;font-family:Arial;-inkscape-font-specification:ArialMT;writing-mode:lr-tb;fill:#000000;fill-opacity:1;fill-rule:nonzero;stroke:none"
       id="text295"><tspan
         x="0"
         y="0"
         id="tspan293">0</tspan></text></g></svg>
