<?xml version="1.0" encoding="UTF-8" standalone="no"?>
<!-- Created with Inkscape (http://www.inkscape.org/) -->

<svg
   version="1.1"
   id="svg9"
   xml:space="preserve"
   width="104.21386mm"
   height="68.796722mm"
   viewBox="0 0 393.87917 260.01909"
   sodipodi:docname="photoeffekt_schema.svg"
   inkscape:version="1.1.1 (3bf5ae0d25, 2021-09-20)"
   xmlns:inkscape="http://www.inkscape.org/namespaces/inkscape"
   xmlns:sodipodi="http://sodipodi.sourceforge.net/DTD/sodipodi-0.dtd"
   xmlns="http://www.w3.org/2000/svg"
   xmlns:svg="http://www.w3.org/2000/svg"><defs
     id="defs13"><clipPath
       clipPathUnits="userSpaceOnUse"
       id="clipPath161"><path
         d="m 376.97998,622.57996 h 66.72 v 12.72 h -66.72 z"
         id="path159" /></clipPath><clipPath
       clipPathUnits="userSpaceOnUse"
       id="clipPath173"><path
         d="m 349.80002,561.26001 h 104.52 v 13.74001 h -104.52 z"
         id="path171" /></clipPath></defs><sodipodi:namedview
     id="namedview11"
     pagecolor="#505050"
     bordercolor="#eeeeee"
     borderopacity="1"
     inkscape:pageshadow="0"
     inkscape:pageopacity="0"
     inkscape:pagecheckerboard="0"
     showgrid="false"
     fit-margin-top="5"
     fit-margin-left="5"
     fit-margin-right="5"
     fit-margin-bottom="5"
     units="mm"
     lock-margins="true"
     inkscape:zoom="0.71347976"
     inkscape:cx="167.48898"
     inkscape:cy="302.0408"
     inkscape:window-width="1920"
     inkscape:window-height="1009"
     inkscape:window-x="-8"
     inkscape:window-y="-8"
     inkscape:window-maximized="1"
     inkscape:current-layer="g15"
     inkscape:document-units="mm" /><g
     id="g15"
     inkscape:groupmode="layer"
     inkscape:label="V500_anleitung"
     transform="matrix(1.3333333,0,0,-1.3333333,-229.20996,864.4285)"><path
       d="m 287.51999,575.17999 h 34.8 v 1.7401 h -34.8 z"
       style="fill:#000000;fill-opacity:1;fill-rule:nonzero;stroke:none"
       id="path89" /><path
       d="m 349.5,550.10004 -0.29999,2.63995 -0.30002,2.64001 -0.59997,2.63996 -0.90003,2.40002 -1.14001,2.34003 -1.5,2.34003 -1.5,2.09997 -1.73999,1.73999 -2.10001,1.79999 -2.03998,1.73999 -2.04,1.20001 -2.4,1.20001 -2.63998,0.83997 -2.34003,0.60004 -2.70001,0.59997 h -2.93997 v -1.73999 h 2.63998 L 327.66,574.88 l 2.34,-0.60003 2.34,-0.89997 2.1,-1.20001 2.03998,-1.14001 2.10001,-1.5 1.74002,-1.73999 1.5,-1.79999 1.43997,-1.73999 1.5,-2.40002 0.90002,-2.03998 0.9,-2.34003 0.54001,-2.39996 0.6,-2.64002 v -2.33996"
       style="fill:#000000;fill-opacity:1;fill-rule:nonzero;stroke:none"
       id="path91" /><path
       d="m 349.5,550.10004 h -1.79999"
       style="fill:#000000;fill-opacity:1;fill-rule:nonzero;stroke:none"
       id="path93" /><path
       d="m 322.32001,522.91998 2.93997,0.29999 2.70001,0.29999 2.34003,0.60004 2.63998,0.89996 2.4,1.14001 4.07998,3 2.10001,1.74005 1.73999,2.03998 1.5,2.09998 1.5,2.04004 1.14001,2.39996 0.90003,2.64002 0.59997,2.33996 0.30002,2.64008 0.29999,3 h -1.79999 v -2.70002 l -0.6,-2.34002 -0.54001,-2.64002 -0.9,-2.40002 -0.90002,-2.03998 -1.5,-2.03998 -1.43997,-2.10003 -1.5,-1.73993 -1.74002,-1.5 -2.10001,-1.44007 -2.03998,-1.5 -2.1,-0.89996 -2.34,-0.90002 -2.34,-0.53998 -2.70001,-0.60004 h -2.63998"
       style="fill:#000000;fill-opacity:1;fill-rule:nonzero;stroke:none"
       id="path95" /><path
       d="m 287.51999,522.91998 h 34.8 v 1.8 h -34.8 z"
       style="fill:#000000;fill-opacity:1;fill-rule:nonzero;stroke:none"
       id="path97" /><path
       d="m 260.34,550.10004 0.29998,-3 0.30002,-2.64008 0.84,-2.33996 0.89999,-2.64002 1.20001,-2.39996 1.19999,-2.04004 1.44,-2.09998 1.80002,-2.03998 2.03998,-1.74005 2.1,-1.5 2.34003,-1.5 2.33996,-1.14001 2.40003,-0.89996 2.63998,-0.60004 2.64002,-0.29999 2.69998,-0.29999 v 1.79999 h -2.69998 l -2.34003,0.60004 -2.39999,0.53998 -2.34,0.90002 -2.34,0.89996 -2.09997,1.5 -1.74002,1.44007 -1.80002,1.5 -1.73999,1.73993 -1.5,2.10003 -1.19998,2.03998 -1.14002,2.03998 -0.89999,2.40002 -0.60001,2.64002 -0.29999,2.34002 -0.30001,2.70002"
       style="fill:#000000;fill-opacity:1;fill-rule:nonzero;stroke:none"
       id="path99" /><path
       d="m 260.34,550.10004 h 1.73999"
       style="fill:#000000;fill-opacity:1;fill-rule:nonzero;stroke:none"
       id="path101" /><path
       d="m 287.51999,576.91998 h -2.69998 l -2.64002,-0.59997 -2.63998,-0.60004 -2.40003,-0.83997 -2.33996,-1.20001 -2.34003,-1.20001 -2.1,-1.73999 -2.03998,-1.79999 -1.80002,-1.73999 -1.44,-2.09997 -1.19999,-2.34003 -1.20001,-2.34003 -0.89999,-2.40002 -0.84,-2.63996 -0.30002,-2.64001 -0.29998,-2.63995 h 1.73999 l 0.30001,2.33996 0.29999,2.64002 0.60001,2.39996 0.89999,2.34003 1.14002,2.03998 1.19998,2.40002 1.5,1.73999 1.73999,1.79999 1.80002,1.73999 1.74002,1.5 2.09997,1.14001 2.34,1.20001 2.34,0.89997 2.39999,0.60003 2.34003,0.29999 h 2.69998"
       style="fill:#000000;fill-opacity:1;fill-rule:nonzero;stroke:none"
       id="path103" /><path
       d="m 274.5,532.70001 h 1.20001 V 567.5 h -2.39999 V 532.70001 H 274.5"
       style="fill:#000000;fill-opacity:1;fill-rule:nonzero;stroke:none"
       id="path105" /><path
       d="M 335.63998,532.70001 H 336.78 V 567.5 h -2.64002 v -34.79999 h 1.5"
       style="fill:#000000;fill-opacity:1;fill-rule:nonzero;stroke:none"
       id="path107" /><path
       d="m 249.12,550.10004 -0.9,-0.90003 H 274.5 V 550.94 h -26.28 l -0.90001,-0.83996 0.90001,0.83996 h -0.90001 v -0.83996"
       style="fill:#000000;fill-opacity:1;fill-rule:nonzero;stroke:none"
       id="path109" /><path
       d="m 248.22,481.03998 0.9,-0.9 v 69.96006 h -1.80001 v -69.96006 l 0.90001,-0.83996 -0.90001,0.83996 v -0.83996 H 248.22"
       style="fill:#000000;fill-opacity:1;fill-rule:nonzero;stroke:none"
       id="path111" /><path
       d="m 274.5,480.13998 v 0.9 h -26.28 v -1.73996 h 26.28 v 0.83996"
       style="fill:#000000;fill-opacity:1;fill-rule:nonzero;stroke:none"
       id="path113" /><path
       d="m 318.17999,480.13998 v 0.9 h -26.28 v -1.73996 h 26.28 v 0.83996"
       style="fill:#000000;fill-opacity:1;fill-rule:nonzero;stroke:none"
       id="path115" /><path
       d="m 360.72,480.13998 0.9,0.9 h -25.98002 v -1.73996 H 361.62 l 0.83999,0.83996 -0.83999,-0.83996 h 0.83999 v 0.83996"
       style="fill:#000000;fill-opacity:1;fill-rule:nonzero;stroke:none"
       id="path117" /><path
       d="m 361.62,549.20001 -0.9,0.90003 v -69.96006 h 1.73999 v 69.96006 L 361.62,550.94 l 0.83999,-0.83996 V 550.94 H 361.62"
       style="fill:#000000;fill-opacity:1;fill-rule:nonzero;stroke:none"
       id="path119" /><path
       d="m 335.63998,550.10004 v -0.90003 H 361.62 V 550.94 h -25.98002 v -0.83996"
       style="fill:#000000;fill-opacity:1;fill-rule:nonzero;stroke:none"
       id="path121" /><path
       d="m 311.10001,506.41998 h 48.71997"
       style="fill:none;stroke:#000000;stroke-width:0.06;stroke-linecap:butt;stroke-linejoin:miter;stroke-miterlimit:10;stroke-dasharray:none;stroke-opacity:1"
       id="path123" /><path
       d="m 361.31998,505.81998 v 1.20001 l -5.63999,3.54001 -0.6,-1.20001 5.33999,-3.54001 v 1.20001"
       style="fill:#000000;fill-opacity:1;fill-rule:evenodd;stroke:none"
       id="path125" /><path
       d="m 361.31998,505.81998 -0.59998,0.6 0.59998,0.60001"
       style="fill:#000000;fill-opacity:1;fill-rule:evenodd;stroke:none"
       id="path127" /><path
       d="m 355.38,502.87997 0.29999,-0.59997 5.63999,3.53998 -0.9,1.20001 -5.33999,-3.54001 0.30001,-0.60001"
       style="fill:#000000;fill-opacity:1;fill-rule:evenodd;stroke:none"
       id="path129" /><path
       d="m 248.81999,505.81998 v 1.20001 l 5.34,3.54001 0.84001,-1.20001 -5.58,-3.54001 v 1.20001"
       style="fill:#000000;fill-opacity:1;fill-rule:evenodd;stroke:none"
       id="path131" /><path
       d="m 248.81999,505.81998 0.30001,0.6 -0.30001,0.60001"
       style="fill:#000000;fill-opacity:1;fill-rule:evenodd;stroke:none"
       id="path133" /><path
       d="m 254.7,502.87997 -0.54001,-0.59997 -5.34,3.53998 0.60001,1.20001 5.58,-3.54001 -0.3,-0.60001"
       style="fill:#000000;fill-opacity:1;fill-rule:evenodd;stroke:none"
       id="path135" /><path
       d="M 250.31999,506.41998 H 299.28"
       style="fill:none;stroke:#000000;stroke-width:0.06;stroke-linecap:butt;stroke-linejoin:miter;stroke-miterlimit:10;stroke-dasharray:none;stroke-opacity:1"
       id="path137" /><text
       transform="matrix(1,0,0,-0.99494937,348.66,467.48029)"
       style="font-variant:normal;font-weight:bold;font-stretch:normal;font-size:12.4519px;font-family:'Times New Roman';-inkscape-font-specification:TimesNewRomanPS-BoldMT;writing-mode:lr-tb;fill:#000000;fill-opacity:1;fill-rule:nonzero;stroke:none"
       id="text141"><tspan
         x="0"
         y="0"
         id="tspan139">I</tspan></text><text
       transform="matrix(1,0,0,-0.97492918,292.85999,469.82028)"
       style="font-variant:normal;font-weight:normal;font-stretch:normal;font-size:12.7076px;font-family:Arial;-inkscape-font-specification:ArialMT;writing-mode:lr-tb;fill:#000000;fill-opacity:1;fill-rule:nonzero;stroke:none"
       id="text145"><tspan
         x="0"
         y="0"
         id="tspan143">+</tspan></text><text
       transform="matrix(1,0,0,-0.97492918,269.51994,471.02069)"
       style="font-variant:normal;font-weight:normal;font-stretch:normal;font-size:12.7076px;font-family:Arial;-inkscape-font-specification:ArialMT;writing-mode:lr-tb;fill:#000000;fill-opacity:1;fill-rule:nonzero;stroke:none"
       id="text149"><tspan
         x="0"
         y="0"
         id="tspan147">-</tspan></text><text
       transform="matrix(1,0,0,-0.97492918,370.19975,625.27986)"
       style="font-variant:normal;font-weight:normal;font-stretch:normal;font-size:12.7076px;font-family:Arial;-inkscape-font-specification:ArialMT;writing-mode:lr-tb;fill:#000000;fill-opacity:1;fill-rule:nonzero;stroke:none"
       id="text153"><tspan
         x="0"
         y="0"
         id="tspan151">h</tspan></text><g
       id="g155"><g
         id="g157"
         clip-path="url(#clipPath161)"><text
           transform="matrix(0.99271855,0,0,-1,376.97998,625.28027)"
           style="font-variant:normal;font-weight:normal;font-stretch:normal;font-size:12.389px;font-family:Symbol;-inkscape-font-specification:SymbolMT;writing-mode:lr-tb;fill:#000000;fill-opacity:1;fill-rule:nonzero;stroke:none"
           id="text165"><tspan
             x="0"
             y="0"
             id="tspan163">ν</tspan></text></g></g><g
       id="g167"><g
         id="g169"
         clip-path="url(#clipPath173)"><text
           transform="matrix(1,0,0,-0.97492918,349.80002,563.90027)"
           style="font-variant:normal;font-weight:normal;font-stretch:normal;font-size:12.7076px;font-family:Arial;-inkscape-font-specification:ArialMT;writing-mode:lr-tb;fill:#000000;fill-opacity:1;fill-rule:nonzero;stroke:none"
           id="text177"><tspan
             x="0"
             y="0"
             id="tspan175">A</tspan></text></g></g><text
       transform="matrix(1,0,0,-0.97492918,358.07999,563.90027)"
       style="font-variant:normal;font-weight:normal;font-stretch:normal;font-size:12.7076px;font-family:Arial;-inkscape-font-specification:ArialMT;writing-mode:lr-tb;fill:#000000;fill-opacity:1;fill-rule:nonzero;stroke:none"
       id="text181"><tspan
         x="0 6.7807755 10.028838 13.2769"
         y="0"
         sodipodi:role="line"
         id="tspan179">uffä</tspan></text><text
       transform="matrix(1,0,0,-0.97492918,378.43501,563.90027)"
       style="font-variant:normal;font-weight:normal;font-stretch:normal;font-size:12.7076px;font-family:Arial;-inkscape-font-specification:ArialMT;writing-mode:lr-tb;fill:#000000;fill-opacity:1;fill-rule:nonzero;stroke:none"
       id="text185"><tspan
         x="0 6.7807755 13.561551 20.342325"
         y="0"
         sodipodi:role="line"
         id="tspan183">nger</tspan></text><text
       transform="matrix(1,0,0,-0.97492918,402.91748,563.90027)"
       style="font-variant:normal;font-weight:normal;font-stretch:normal;font-size:12.7076px;font-family:Arial;-inkscape-font-specification:ArialMT;writing-mode:lr-tb;fill:#000000;fill-opacity:1;fill-rule:nonzero;stroke:none"
       id="text189"><tspan
         x="0 6.7807755"
         y="0"
         sodipodi:role="line"
         id="tspan187">el</tspan></text><text
       transform="matrix(1,0,0,-0.97492918,412.33635,563.90027)"
       style="font-variant:normal;font-weight:normal;font-stretch:normal;font-size:12.7076px;font-family:Arial;-inkscape-font-specification:ArialMT;writing-mode:lr-tb;fill:#000000;fill-opacity:1;fill-rule:nonzero;stroke:none"
       id="text193"><tspan
         x="0"
         y="0"
         id="tspan191">e</tspan></text><text
       transform="matrix(1,0,0,-0.97492918,419.41447,563.90027)"
       style="font-variant:normal;font-weight:normal;font-stretch:normal;font-size:12.7076px;font-family:Arial;-inkscape-font-specification:ArialMT;writing-mode:lr-tb;fill:#000000;fill-opacity:1;fill-rule:nonzero;stroke:none"
       id="text197"><tspan
         x="0"
         y="0"
         id="tspan195">k</tspan></text><text
       transform="matrix(1,0,0,-0.97492918,425.65392,563.90027)"
       style="font-variant:normal;font-weight:normal;font-stretch:normal;font-size:12.7076px;font-family:Arial;-inkscape-font-specification:ArialMT;writing-mode:lr-tb;fill:#000000;fill-opacity:1;fill-rule:nonzero;stroke:none"
       id="text201"><tspan
         x="0 3.2480626"
         y="0"
         sodipodi:role="line"
         id="tspan199">tr</tspan></text><text
       transform="matrix(1,0,0,-0.97492918,433.04211,563.90027)"
       style="font-variant:normal;font-weight:normal;font-stretch:normal;font-size:12.7076px;font-family:Arial;-inkscape-font-specification:ArialMT;writing-mode:lr-tb;fill:#000000;fill-opacity:1;fill-rule:nonzero;stroke:none"
       id="text205"><tspan
         x="0 6.7807755 13.561551"
         y="0"
         sodipodi:role="line"
         id="tspan203">ode</tspan></text><text
       transform="matrix(1,0,0,-0.97492918,185.10033,563.30063)"
       style="font-variant:normal;font-weight:normal;font-stretch:normal;font-size:12.7076px;font-family:Arial;-inkscape-font-specification:ArialMT;writing-mode:lr-tb;fill:#000000;fill-opacity:1;fill-rule:nonzero;stroke:none"
       id="text209"><tspan
         x="0 8.1964016 14.982261 21.768118"
         y="0"
         sodipodi:role="line"
         id="tspan207">Phot</tspan></text><text
       transform="matrix(1,0,0,-0.97492918,210.40988,563.30063)"
       style="font-variant:normal;font-weight:normal;font-stretch:normal;font-size:12.7076px;font-family:Arial;-inkscape-font-specification:ArialMT;writing-mode:lr-tb;fill:#000000;fill-opacity:1;fill-rule:nonzero;stroke:none"
       id="text213"><tspan
         x="0 6.7858586"
         y="0"
         sodipodi:role="line"
         id="tspan211">ok</tspan></text><text
       transform="matrix(1,0,0,-0.97492918,223.37535,563.30063)"
       style="font-variant:normal;font-weight:normal;font-stretch:normal;font-size:12.7076px;font-family:Arial;-inkscape-font-specification:ArialMT;writing-mode:lr-tb;fill:#000000;fill-opacity:1;fill-rule:nonzero;stroke:none"
       id="text217"><tspan
         x="0 6.7858586"
         y="0"
         sodipodi:role="line"
         id="tspan215">at</tspan></text><text
       transform="matrix(1,0,0,-0.97492918,233.76373,563.30063)"
       style="font-variant:normal;font-weight:normal;font-stretch:normal;font-size:12.7076px;font-family:Arial;-inkscape-font-specification:ArialMT;writing-mode:lr-tb;fill:#000000;fill-opacity:1;fill-rule:nonzero;stroke:none"
       id="text221"><tspan
         x="0 6.7858586 13.571717 20.357574"
         y="0"
         sodipodi:role="line"
         id="tspan219">hode</tspan></text><text
       transform="matrix(1,0,0,-0.97492918,300.53999,501.98132)"
       style="font-variant:normal;font-weight:normal;font-stretch:normal;font-size:12.7076px;font-family:Arial;-inkscape-font-specification:ArialMT;writing-mode:lr-tb;fill:#000000;fill-opacity:1;fill-rule:nonzero;stroke:none"
       id="text225"><tspan
         x="0 8.8176765"
         y="0"
         sodipodi:role="line"
         id="tspan223">U </tspan></text><path
       d="m 292.80002,480.13998 -0.30002,2.10001 -0.60001,1.73999 -0.83999,1.5 -1.20001,1.5 -1.5,1.14002 -1.44001,0.89999 -1.79998,0.60001 -2.04001,0.29998 V 488.12 l 1.74002,-0.30002 1.5,-0.29999 1.19998,-0.84 1.14001,-0.89999 0.9,-1.20001 0.89999,-1.13999 0.29999,-1.5 0.30002,-1.80002"
       style="fill:#000000;fill-opacity:1;fill-rule:nonzero;stroke:none"
       id="path227" /><path
       d="m 283.07999,470.72 2.04001,0.29999 1.79998,0.29999 1.44001,0.90002 1.5,1.13999 1.20001,1.5 0.83999,1.74002 0.60001,1.79998 0.30002,1.73999 H 291.06 l -0.30002,-1.43997 -0.29999,-1.5 -0.89999,-1.44003 -0.9,-0.89999 -1.14001,-1.19999 -1.19998,-0.6 -1.5,-0.54001 h -1.74002"
       style="fill:#000000;fill-opacity:1;fill-rule:nonzero;stroke:none"
       id="path229" /><path
       d="m 273.60001,480.13998 v -1.73999 l 0.6,-1.79998 0.9,-1.74002 1.20001,-1.5 1.43997,-1.13999 1.80002,-0.90002 1.73999,-0.29999 1.79999,-0.29999 v 1.79999 h -1.5 l -1.5,0.54001 -1.44001,0.6 -0.89999,1.19999 -1.19998,0.89999 -0.54001,1.44003 -0.60001,1.5 v 1.43997"
       style="fill:#000000;fill-opacity:1;fill-rule:nonzero;stroke:none"
       id="path231" /><path
       d="M 283.07999,489.91998 281.28,489.62 l -1.73999,-0.60001 -1.80002,-0.89999 -1.43997,-1.14002 -1.20001,-1.5 -0.9,-1.5 -0.6,-1.73999 v -2.10001 h 1.79998 V 481.94 l 0.60001,1.5 0.54001,1.13999 2.09997,2.1 1.44001,0.84 1.5,0.29999 1.5,0.30002"
       style="fill:#000000;fill-opacity:1;fill-rule:nonzero;stroke:none"
       id="path233" /><path
       d="m 336.47998,480.13998 -0.29999,2.10001 -0.54001,1.73999 -0.89999,1.5 -1.20001,1.5 -1.5,1.14002 -1.43997,0.89999 -1.79999,0.60001 -2.04004,0.29998 V 488.12 l 1.5,-0.30002 1.44003,-0.29999 1.5,-0.84 1.13999,-0.89999 0.89999,-1.20001 0.89999,-1.13999 0.30002,-1.5 0.29999,-1.80002"
       style="fill:#000000;fill-opacity:1;fill-rule:nonzero;stroke:none"
       id="path235" /><path
       d="m 326.75998,470.72 2.04004,0.29999 1.79999,0.29999 1.43997,0.90002 1.5,1.13999 1.20001,1.5 0.89999,1.74002 0.54001,1.79998 0.29999,1.73999 h -1.73999 l -0.29999,-1.43997 -0.30002,-1.5 -0.89999,-1.44003 -0.89999,-0.89999 -1.13999,-1.19999 -1.5,-0.6 -1.44003,-0.54001 h -1.5"
       style="fill:#000000;fill-opacity:1;fill-rule:nonzero;stroke:none"
       id="path237" /><path
       d="m 317.28,480.13998 v -1.73999 l 0.6,-1.79998 0.9,-1.74002 1.19998,-1.5 1.44,-1.13999 1.5,-0.90002 2.04001,-0.29999 1.79999,-0.29999 v 1.79999 h -1.5 l -1.43997,0.54001 -1.5,0.6 -1.20001,1.19999 -0.84,0.89999 -0.60001,1.44003 -0.6,1.5 -0.29999,1.43997"
       style="fill:#000000;fill-opacity:1;fill-rule:nonzero;stroke:none"
       id="path239" /><path
       d="m 326.75998,489.91998 -1.79999,-0.29998 -2.04001,-0.60001 -1.5,-0.89999 -1.44,-1.14002 -1.19998,-1.5 -0.9,-1.5 -0.6,-1.73999 v -2.10001 h 1.5 l 0.29999,1.80002 0.6,1.5 0.60001,1.13999 0.84,1.20001 1.20001,0.89999 1.5,0.84 1.43997,0.29999 1.5,0.30002"
       style="fill:#000000;fill-opacity:1;fill-rule:nonzero;stroke:none"
       id="path241" /><path
       d="M 317.03998,470.41998 334.73999,488.12"
       style="fill:none;stroke:#000000;stroke-width:0.06;stroke-linecap:butt;stroke-linejoin:miter;stroke-miterlimit:10;stroke-dasharray:none;stroke-opacity:1"
       id="path243" /><path
       d="m 337.07999,490.75998 -3.84,-1.44 2.64001,-2.34 1.19999,3.78"
       style="fill:#000000;fill-opacity:1;fill-rule:evenodd;stroke:none"
       id="path245" /><path
       d="m 346.25998,480.13998 v 0.9 H 339.72 v -1.73996 h 6.53998 v 0.83996"
       style="fill:#000000;fill-opacity:1;fill-rule:nonzero;stroke:none"
       id="path247" /><path
       d="m 348,479.60001 v 1.43997 l -6.78,4.44 -0.89999,-1.5 6.78,-4.37997 v 1.43997"
       style="fill:#000000;fill-opacity:1;fill-rule:nonzero;stroke:none"
       id="path249" /><path
       d="m 348,479.60001 -0.60001,0.53997 0.60001,0.9"
       style="fill:#000000;fill-opacity:1;fill-rule:nonzero;stroke:none"
       id="path251" /><path
       d="m 340.62,475.75998 0.6,-0.59998 6.78,4.44001 -0.89999,1.43997 -6.78,-4.43997 0.29999,-0.84003"
       style="fill:#000000;fill-opacity:1;fill-rule:nonzero;stroke:none"
       id="path253" /><text
       transform="matrix(0.9825073,0,0,-1,278.34,473.9603)"
       style="font-variant:normal;font-weight:normal;font-stretch:normal;font-size:17.6988px;font-family:Arial;-inkscape-font-specification:ArialMT;writing-mode:lr-tb;fill:#000000;fill-opacity:1;fill-rule:nonzero;stroke:none"
       id="text257"><tspan
         x="0"
         y="0"
         id="tspan255">=</tspan></text><path
       d="m 306.35999,574.88 1.20001,-1.5 0.6,-1.5 0.59998,-1.44 0.30002,-1.5 v -1.44 l -0.30002,-1.5 -0.89999,-1.20001 -0.9,-0.84003 -0.89999,-0.59997 -1.44,-0.59998 h -2.64002 l -1.5,0.59998 -1.5,0.90002 -1.13998,0.84003 -1.5,1.19995 m 30.11999,25.38 1.20001,-1.5 0.59998,-1.44 0.54004,-1.5 0.29999,-1.44 v -1.5 l -0.60001,-1.5 -0.54001,-1.14002 -0.89999,-0.89996 -0.9,-0.90002 -1.5,-0.29999 h -2.64001 l -1.44,0.59997 -1.5,0.90003 -1.19999,0.89996 -1.44,1.14008 m 30.12,25.37994 1.14001,-1.5 0.60001,-1.44 0.59997,-1.5 0.30002,-1.43994 -0.30002,-1.5 -0.29998,-1.44007 L 348,598.45996 347.10001,597.56 l -1.14002,-0.90003 -1.20001,-0.23999 H 342.12 l -1.5,0.53998 -1.44001,0.90003 -1.5,0.90002 -1.20001,1.19995 m 30.12003,25.32001 1.20001,-1.44 0.59997,-1.5 0.60001,-1.43995 0.23999,-1.5 -0.23999,-1.5 -0.29999,-1.44006 -0.6,-1.19995 -0.9,-0.90002 L 366,613.51996 364.85999,613.21997 H 362.16 l -1.44,0.60004 -1.5,0.83996 -1.44,0.90003 -1.20001,1.20001"
       style="fill:none;stroke:#000000;stroke-width:0.06;stroke-linecap:butt;stroke-linejoin:miter;stroke-miterlimit:10;stroke-dasharray:none;stroke-opacity:1"
       id="path259" /><path
       d="m 286.62,558.01996 h -0.29999 v -0.29999 l 0.29999,0.29999"
       style="fill:#000000;fill-opacity:1;fill-rule:evenodd;stroke:none"
       id="path261" /><path
       d="m 286.62,558.01996 0.29998,0.30005 H 287.22 l -1.20001,-0.84003 0.60001,0.53998"
       style="fill:#000000;fill-opacity:1;fill-rule:evenodd;stroke:none"
       id="path263" /><path
       d="m 285.72,558.01996 0.9,0.90002 0.29998,-0.29998 -0.59997,-1.14002 h -0.30002 l 0.89999,0.84003"
       style="fill:#000000;fill-opacity:1;fill-rule:evenodd;stroke:none"
       id="path265" /><path
       d="m 285.72,558.01996 h 0.60001 l 0.29999,0.90002"
       style="fill:#000000;fill-opacity:1;fill-rule:evenodd;stroke:none"
       id="path267" /><path
       d="M 286.32001,557.71997 H 285.72 v 0.29999 l 1.19998,0.30005 0.30002,-0.30005 -0.89999,-0.29999"
       style="fill:#000000;fill-opacity:1;fill-rule:evenodd;stroke:none"
       id="path269" /><path
       d="m 286.32001,558.01996 0.59997,0.60004 v -0.29999 l -0.89999,-0.84003 -0.29999,0.23999 0.60001,0.29999"
       style="fill:#000000;fill-opacity:1;fill-rule:evenodd;stroke:none"
       id="path271" /><path
       d="m 286.32001,558.01996 0.29999,0.60004 -0.29999,-1.14002 v 0.53998"
       style="fill:#000000;fill-opacity:1;fill-rule:evenodd;stroke:none"
       id="path273" /><path
       d="m 286.32001,558.01996 h 0.89999 -1.5 0.60001"
       style="fill:#000000;fill-opacity:1;fill-rule:evenodd;stroke:none"
       id="path275" /><path
       d="m 286.32001,557.47998 0.89999,0.84003 v -0.30005 h -1.5 l 0.9,0.60004"
       style="fill:#000000;fill-opacity:1;fill-rule:evenodd;stroke:none"
       id="path277" /><path
       d="m 285.72,558.01996 h 0.60001 L 286.62,558.62"
       style="fill:#000000;fill-opacity:1;fill-rule:evenodd;stroke:none"
       id="path279" /><path
       d="m 286.32001,558.01996 v -0.53998 l 0.29999,1.14002 -0.29999,-0.60004"
       style="fill:#000000;fill-opacity:1;fill-rule:evenodd;stroke:none"
       id="path281" /><path
       d="m 286.62,558.01996 0.89999,-1.43994 0.84,-1.5 0.30001,-1.44001 0.29999,-1.5 V 550.94 l -0.29999,-1.14001 -0.6,-1.19995 -0.54001,-0.90003 -0.89999,-0.84002 -0.9,-0.59998 -1.20001,-0.30005 H 281.88 l -1.20001,0.60004 -1.44,0.54004 -1.5,1.19995"
       style="fill:none;stroke:#000000;stroke-width:0.06;stroke-linecap:butt;stroke-linejoin:miter;stroke-miterlimit:10;stroke-dasharray:none;stroke-opacity:1"
       id="path283" /><path
       d="m 275.10001,550.64001 1.44,-3.78002 2.39999,2.64001 -3.83999,1.14001"
       style="fill:#000000;fill-opacity:1;fill-rule:evenodd;stroke:none"
       id="path285" /><path
       d="m 316.44,583.10004 -1.20001,1.5 -1.20001,0.89996 -1.43997,0.53998 -1.5,0.60003 -1.44001,0.29999 -1.5,-0.29999 -1.20001,-0.30004 -1.13998,-0.53998 -0.90003,-1.19995 -0.59997,-1.20002 -0.30002,-1.14001 v -1.5 l 0.30002,-1.5 0.29999,-1.44 0.89999,-1.5 0.84,-1.44001 m -10.01999,-8.58001 -1.20002,1.5 -1.13998,0.84002 -1.5,0.89997 -1.44,0.29999 -1.5,0.30004 -1.20001,-0.30004 -1.44001,-0.29999 -1.19998,-0.59998 -0.89999,-1.14001 -0.60001,-1.19995 -0.30002,-1.20002 v -1.44006 l 0.30002,-1.5 0.29999,-1.44 0.89999,-1.5 1.20002,-1.5 m 69.95999,58.74005 -1.19999,1.44 -1.44,0.90003 -1.20001,0.59997 -1.5,0.59998 -1.43997,0.30005 -1.5,-0.30005 L 347.10001,620 345.95999,619.40002 345.06,618.20001 344.45999,617.06 344.16,615.85999 v -1.5 l 0.29999,-1.44001 0.29999,-1.5 0.90002,-1.44 0.9,-1.5 m -10.08002,-8.52002 -1.13998,1.44006 -1.20002,0.89997 -1.5,0.60003 -1.43997,0.59998 -1.5,0.23999 -1.44003,-0.23999 -1.19998,-0.29999 -1.20001,-0.59997 -0.9,-1.20002 -0.54001,-1.20001 L 324.12,599.06 v -1.5 l 0.29998,-1.44 0.24002,-1.5 0.9,-1.5 0.89999,-1.44001"
       style="fill:none;stroke:#000000;stroke-width:0.06;stroke-linecap:butt;stroke-linejoin:miter;stroke-miterlimit:10;stroke-dasharray:none;stroke-opacity:1"
       id="path287" /><path
       d="m 325.25998,540.62 0.30002,0.89996 -51.06,9.42004 -0.29999,-1.73999 51.05997,-9.42004 V 540.62"
       style="fill:#000000;fill-opacity:1;fill-rule:nonzero;stroke:none"
       id="path289" /><path
       d="m 329.70001,539.77997 -3.84002,2.94 -0.9,-4.44 4.74002,1.5"
       style="fill:#000000;fill-opacity:1;fill-rule:nonzero;stroke:none"
       id="path291" /><path
       d="m 321.12,534.44 h 3.53999 v 0.60004 H 321.12 Z"
       style="fill:#000000;fill-opacity:1;fill-rule:nonzero;stroke:none"
       id="path293" /><path
       d="m 321.12,534.44 v 0.59998 h 3.54 V 534.44 h -3.54"
       style="fill:none;stroke:#000000;stroke-width:0.06;stroke-linecap:butt;stroke-linejoin:miter;stroke-miterlimit:10;stroke-dasharray:none;stroke-opacity:1"
       id="path295" /><text
       transform="matrix(1,0,0,-0.97030562,315.30002,528.80029)"
       style="font-variant:normal;font-weight:normal;font-stretch:normal;font-size:10.0322px;font-family:Arial;-inkscape-font-specification:ArialMT;writing-mode:lr-tb;fill:#000000;fill-opacity:1;fill-rule:nonzero;stroke:none"
       id="text299"><tspan
         x="0"
         y="0"
         id="tspan297">e</tspan></text></g></svg>
