<?xml version="1.0" encoding="UTF-8" standalone="no"?>
<!-- Created with Inkscape (http://www.inkscape.org/) -->

<svg
   version="1.1"
   id="svg6408"
   xml:space="preserve"
   width="134.13593mm"
   height="64.528877mm"
   viewBox="0 0 506.97043 243.88866"
   sodipodi:docname="photostrom.svg"
   inkscape:version="1.1.1 (3bf5ae0d25, 2021-09-20)"
   xmlns:inkscape="http://www.inkscape.org/namespaces/inkscape"
   xmlns:sodipodi="http://sodipodi.sourceforge.net/DTD/sodipodi-0.dtd"
   xmlns="http://www.w3.org/2000/svg"
   xmlns:svg="http://www.w3.org/2000/svg"><defs
     id="defs6412" /><sodipodi:namedview
     id="namedview6410"
     pagecolor="#505050"
     bordercolor="#eeeeee"
     borderopacity="1"
     inkscape:pageshadow="0"
     inkscape:pageopacity="0"
     inkscape:pagecheckerboard="0"
     showgrid="false"
     units="mm"
     lock-margins="true"
     fit-margin-top="5"
     fit-margin-left="5"
     fit-margin-right="5"
     fit-margin-bottom="5"
     inkscape:zoom="0.71347976"
     inkscape:cx="224.95382"
     inkscape:cy="502.46695"
     inkscape:window-width="1920"
     inkscape:window-height="1009"
     inkscape:window-x="-8"
     inkscape:window-y="-8"
     inkscape:window-maximized="1"
     inkscape:current-layer="g6414"
     inkscape:document-units="mm" /><g
     id="g6414"
     inkscape:groupmode="layer"
     inkscape:label="V500_anleitung"
     transform="matrix(1.3333333,0,0,-1.3333333,-171.74236,1064.4653)"><path
       d="m 146.34,778.63995 h 1.14 l 3.3,-5.15997 -1.08,-0.65997 -3.36,5.15997 h 1.14"
       style="fill:#000000;fill-opacity:1;fill-rule:nonzero;stroke:none"
       id="path6420" /><path
       d="m 146.34,778.63995 0.41999,-0.23993 0.72001,0.23993"
       style="fill:#000000;fill-opacity:1;fill-rule:nonzero;stroke:none"
       id="path6422" /><path
       d="m 143.45999,773.06 -0.47999,0.41998 3.36,5.15997 1.14,-0.65997 -3.60001,-5.15997 -0.42,0.23999"
       style="fill:#000000;fill-opacity:1;fill-rule:nonzero;stroke:none"
       id="path6424" /><path
       d="m 146.75999,647.95996 0.72001,-0.71997 v 130.02002 h -1.37999 V 647.23999 l 0.65998,-0.66003 -0.65998,0.66003 v -0.66003 h 0.65998"
       style="fill:#000000;fill-opacity:1;fill-rule:nonzero;stroke:none"
       id="path6426" /><path
       d="m 398.70001,647.23999 v 0.71997 H 146.75999 v -1.38 h 251.94002 v 0.66003"
       style="fill:#000000;fill-opacity:1;fill-rule:nonzero;stroke:none"
       id="path6428" /><path
       d="m 400.01999,646.57996 v 1.14001 l -5.10001,3.35999 -0.66,-1.13996 5.10001,-3.36004 v 1.14001"
       style="fill:#000000;fill-opacity:1;fill-rule:nonzero;stroke:none"
       id="path6430" /><path
       d="m 400.01999,646.57996 -0.17999,0.66003 0.17999,0.47998"
       style="fill:#000000;fill-opacity:1;fill-rule:nonzero;stroke:none"
       id="path6432" /><path
       d="m 394.44,643.70001 0.47998,-0.48004 5.10001,3.35999 -0.66,1.14001 -5.10001,-3.35998 0.18002,-0.65998"
       style="fill:#000000;fill-opacity:1;fill-rule:nonzero;stroke:none"
       id="path6434" /><path
       d="m 390.66,647.95996 h -6.24002 l -6,0.18005 -5.81997,0.47999 -5.58002,0.41998 -5.34,0.66003 -5.39999,0.90003 -5.10001,0.89996 -4.92001,1.14001 -4.67999,1.07996 -4.68,1.38007 -4.44,1.55993 -8.51999,3.12 -8.04001,3.60003 -3.77999,1.97999 -3.78,2.04003 -3.60001,1.97998 -3.53998,2.22004 -3.36001,2.03997 -6.66001,4.68 -6.29999,4.91998 -6,4.91998 -5.82,5.10004 -5.75998,5.15997 -5.58002,5.34003 -10.98001,10.5 -11.33998,10.07996 -5.82001,4.92004 -6,4.67999 -6.3,4.26001 -6.42,4.25995 -3.36,1.74005 -3.36,2.03998 -3.53999,1.79999 -3.84002,1.56006 -3.77999,1.55993 -3.78,1.32001 -4.02001,1.32001 -4.25999,1.38 -4.2,1.08002 -4.26001,0.89996 -4.67999,0.90003 -4.67999,0.65997 -4.68001,0.48004 -5.16001,0.41999 -5.09999,0.23999 -5.40001,0.24005 v -1.38007 l 5.40001,-0.17999 5.09999,-0.23999 4.92,-0.23999 4.92002,-0.65998 4.43998,-0.66003 4.5,-0.90002 4.44001,-0.89997 4.25999,-1.14001 4.02,-1.08002 3.96001,-1.31995 3.84,-1.38006 3.78,-1.56 3.53999,-1.79999 3.60001,-1.73999 3.36,-1.79998 3.3,-1.79999 6.48,-4.26001 6.24,-4.20001 6.06,-4.73999 5.58,-4.68 11.40001,-10.26001 10.92,-10.5 5.57998,-5.16003 5.76001,-5.09998 5.81998,-5.15997 6.24002,-5.15997 6.23999,-4.92005 6.72,-4.44 3.35999,-2.22003 3.54001,-2.27997 3.6,-2.22003 3.78,-1.97998 3.78,-1.79999 4.01999,-2.03998 4.26001,-1.56 4.20001,-1.73999 4.25998,-1.56005 4.44,-1.38001 4.74002,-1.31995 4.85999,-1.32 4.92001,-1.14002 5.16001,-0.90002 5.33999,-0.89997 5.34,-0.66003 5.82001,-0.47998 5.81997,-0.41998 6,-0.24005 H 390.66"
       style="fill:#000000;fill-opacity:1;fill-rule:nonzero;stroke:none"
       id="path6436" /><text
       transform="matrix(1,0,0,-0.97686552,381.30002,631.58026)"
       style="font-variant:normal;font-weight:normal;font-stretch:normal;font-size:9.60471px;font-family:Arial;-inkscape-font-specification:ArialMT;writing-mode:lr-tb;fill:#000000;fill-opacity:1;fill-rule:nonzero;stroke:none"
       id="text6440"><tspan
         x="0"
         y="0"
         id="tspan6438">g</tspan></text><text
       transform="matrix(0.99567666,0,0,-1,373.07999,634.52026)"
       style="font-variant:normal;font-weight:normal;font-stretch:normal;font-size:11.1696px;font-family:Arial;-inkscape-font-specification:ArialMT;writing-mode:lr-tb;fill:#000000;fill-opacity:1;fill-rule:nonzero;stroke:none"
       id="text6444"><tspan
         x="0"
         y="0"
         id="tspan6442">U</tspan></text><text
       transform="matrix(1,0,0,-0.97686552,159.53999,772.58026)"
       style="font-variant:normal;font-weight:normal;font-stretch:normal;font-size:9.60471px;font-family:Arial;-inkscape-font-specification:ArialMT;writing-mode:lr-tb;fill:#000000;fill-opacity:1;fill-rule:nonzero;stroke:none"
       id="text6448"><tspan
         x="0 6.2324963 11.39887"
         y="0"
         sodipodi:role="line"
         id="tspan6446">Pho</tspan></text><text
       transform="matrix(1,0,0,-0.97686552,176.03712,772.58026)"
       style="font-variant:normal;font-weight:normal;font-stretch:normal;font-size:9.60471px;font-family:Arial;-inkscape-font-specification:ArialMT;writing-mode:lr-tb;fill:#000000;fill-opacity:1;fill-rule:nonzero;stroke:none"
       id="text6452"><tspan
         x="0"
         y="0"
         id="tspan6450">t</tspan></text><text
       transform="matrix(1,0,0,-0.97686552,178.73895,772.58026)"
       style="font-variant:normal;font-weight:normal;font-stretch:normal;font-size:9.60471px;font-family:Arial;-inkscape-font-specification:ArialMT;writing-mode:lr-tb;fill:#000000;fill-opacity:1;fill-rule:nonzero;stroke:none"
       id="text6456"><tspan
         x="0"
         y="0"
         id="tspan6454">o</tspan></text><text
       transform="matrix(0.98302535,0,0,-1,154.62,776.78027)"
       style="font-variant:normal;font-weight:bold;font-stretch:normal;font-size:11.1696px;font-family:'Times New Roman';-inkscape-font-specification:TimesNewRomanPS-BoldMT;writing-mode:lr-tb;fill:#000000;fill-opacity:1;fill-rule:nonzero;stroke:none"
       id="text6460"><tspan
         x="0"
         y="0"
         id="tspan6458">I</tspan></text><path
       d="M 378.17999,647.47998 V 644.12"
       style="fill:none;stroke:#000000;stroke-width:0.06;stroke-linecap:butt;stroke-linejoin:miter;stroke-miterlimit:10;stroke-dasharray:none;stroke-opacity:1"
       id="path6462" /><text
       transform="matrix(0.99567666,0,0,-1,403.44,644.78027)"
       style="font-variant:normal;font-weight:normal;font-stretch:normal;font-size:11.1696px;font-family:Arial;-inkscape-font-specification:ArialMT;writing-mode:lr-tb;fill:#000000;fill-opacity:1;fill-rule:nonzero;stroke:none"
       id="text6466"><tspan
         x="0"
         y="0"
         id="tspan6464">B</tspan></text><text
       transform="matrix(0.99567666,0,0,-1,410.76003,644.78027)"
       style="font-variant:normal;font-weight:normal;font-stretch:normal;font-size:11.1696px;font-family:Arial;-inkscape-font-specification:ArialMT;writing-mode:lr-tb;fill:#000000;fill-opacity:1;fill-rule:nonzero;stroke:none"
       id="text6470"><tspan
         x="0"
         y="0"
         id="tspan6468">r</tspan></text><text
       transform="matrix(0.99567666,0,0,-1,414.60019,644.78027)"
       style="font-variant:normal;font-weight:normal;font-stretch:normal;font-size:11.1696px;font-family:Arial;-inkscape-font-specification:ArialMT;writing-mode:lr-tb;fill:#000000;fill-opacity:1;fill-rule:nonzero;stroke:none"
       id="text6474"><tspan
         x="0 6.2650285"
         y="0"
         sodipodi:role="line"
         id="tspan6472">em</tspan></text><text
       transform="matrix(0.99567666,0,0,-1,429.95757,644.78027)"
       style="font-variant:normal;font-weight:normal;font-stretch:normal;font-size:11.1696px;font-family:Arial;-inkscape-font-specification:ArialMT;writing-mode:lr-tb;fill:#000000;fill-opacity:1;fill-rule:nonzero;stroke:none"
       id="text6478"><tspan
         x="0"
         y="0"
         id="tspan6476">s</tspan></text><text
       transform="matrix(0.99567666,0,0,-1,435.77731,644.78027)"
       style="font-variant:normal;font-weight:normal;font-stretch:normal;font-size:11.1696px;font-family:Arial;-inkscape-font-specification:ArialMT;writing-mode:lr-tb;fill:#000000;fill-opacity:1;fill-rule:nonzero;stroke:none"
       id="text6482"><tspan
         x="0"
         y="0"
         id="tspan6480">s</tspan></text><text
       transform="matrix(0.99567666,0,0,-1,441.35686,644.78027)"
       style="font-variant:normal;font-weight:normal;font-stretch:normal;font-size:11.1696px;font-family:Arial;-inkscape-font-specification:ArialMT;writing-mode:lr-tb;fill:#000000;fill-opacity:1;fill-rule:nonzero;stroke:none"
       id="text6486"><tspan
         x="0"
         y="0"
         id="tspan6484">p</tspan></text><text
       transform="matrix(0.99567666,0,0,-1,447.35567,644.78027)"
       style="font-variant:normal;font-weight:normal;font-stretch:normal;font-size:11.1696px;font-family:Arial;-inkscape-font-specification:ArialMT;writing-mode:lr-tb;fill:#000000;fill-opacity:1;fill-rule:nonzero;stroke:none"
       id="text6490"><tspan
         x="0"
         y="0"
         id="tspan6488">a</tspan></text><text
       transform="matrix(0.99567666,0,0,-1,453.5936,644.78027)"
       style="font-variant:normal;font-weight:normal;font-stretch:normal;font-size:11.1696px;font-family:Arial;-inkscape-font-specification:ArialMT;writing-mode:lr-tb;fill:#000000;fill-opacity:1;fill-rule:nonzero;stroke:none"
       id="text6494"><tspan
         x="0"
         y="0"
         id="tspan6492">n</tspan></text><text
       transform="matrix(0.99567666,0,0,-1,459.89157,644.78027)"
       style="font-variant:normal;font-weight:normal;font-stretch:normal;font-size:11.1696px;font-family:Arial;-inkscape-font-specification:ArialMT;writing-mode:lr-tb;fill:#000000;fill-opacity:1;fill-rule:nonzero;stroke:none"
       id="text6498"><tspan
         x="0 6.2650285 12.530057"
         y="0"
         sodipodi:role="line"
         id="tspan6496">nun</tspan></text><text
       transform="matrix(0.99567666,0,0,-1,478.36621,644.78027)"
       style="font-variant:normal;font-weight:normal;font-stretch:normal;font-size:11.1696px;font-family:Arial;-inkscape-font-specification:ArialMT;writing-mode:lr-tb;fill:#000000;fill-opacity:1;fill-rule:nonzero;stroke:none"
       id="text6502"><tspan
         x="0 6.2650285 9.4003353"
         y="0"
         sodipodi:role="line"
         id="tspan6500">g U</tspan></text></g></svg>
