<?xml version="1.0" encoding="UTF-8" standalone="no"?>
<!-- Created with Inkscape (http://www.inkscape.org/) -->

<svg
   version="1.1"
   id="svg9"
   xml:space="preserve"
   width="109.02222mm"
   height="77.034081mm"
   viewBox="0 0 412.0525 291.15242"
   sodipodi:docname="maxreichweite.svg"
   inkscape:version="1.1.1 (3bf5ae0d25, 2021-09-20)"
   xmlns:inkscape="http://www.inkscape.org/namespaces/inkscape"
   xmlns:sodipodi="http://sodipodi.sourceforge.net/DTD/sodipodi-0.dtd"
   xmlns="http://www.w3.org/2000/svg"
   xmlns:svg="http://www.w3.org/2000/svg"><defs
     id="defs13"><clipPath
       clipPathUnits="userSpaceOnUse"
       id="clipPath511"><path
         d="m 364.62,148.22 h 45.3 v 10.25999 h -45.3 z"
         id="path509" /></clipPath></defs><sodipodi:namedview
     id="namedview11"
     pagecolor="#505050"
     bordercolor="#eeeeee"
     borderopacity="1"
     inkscape:pageshadow="0"
     inkscape:pageopacity="0"
     inkscape:pagecheckerboard="0"
     showgrid="false"
     units="mm"
     fit-margin-top="5"
     lock-margins="true"
     fit-margin-left="5"
     fit-margin-right="5"
     fit-margin-bottom="5"
     inkscape:zoom="1.4269595"
     inkscape:cx="168.54017"
     inkscape:cy="75.335003"
     inkscape:window-width="1920"
     inkscape:window-height="1009"
     inkscape:window-x="-8"
     inkscape:window-y="-8"
     inkscape:window-maximized="1"
     inkscape:current-layer="g15"
     inkscape:document-units="mm" /><g
     id="g15"
     inkscape:groupmode="layer"
     inkscape:label="V704_anleitung"
     transform="matrix(1.3333333,0,0,-1.3333333,-219.18236,471.32431)"><path
       d="m 182.34,339.32001 h 1.19999 L 187.14,333.56 l -1.2,-0.72 -3.6,5.51999 h 1.19999"
       style="fill:#000000;fill-opacity:1;fill-rule:nonzero;stroke:none"
       id="path351" /><path
       d="m 182.34,339.32001 0.47999,-0.48001 0.72,0.48001"
       style="fill:#000000;fill-opacity:1;fill-rule:nonzero;stroke:none"
       id="path353" /><path
       d="m 179.28,333.32001 -0.72,0.23999 3.78,5.76001 1.19999,-0.96002 L 179.7,332.84 l -0.42,0.48001"
       style="fill:#000000;fill-opacity:1;fill-rule:nonzero;stroke:none"
       id="path355" /><path
       d="m 182.81999,177.31999 0.72,-0.47999 v 160.79998 h -1.43998 V 176.84 l 0.71998,-0.72 -0.71998,0.72 v -0.72 h 0.71998"
       style="fill:#000000;fill-opacity:1;fill-rule:nonzero;stroke:none"
       id="path357" /><path
       d="m 407.45999,176.84 v 0.47999 h -224.64 V 176.12 h 224.64 v 0.72"
       style="fill:#000000;fill-opacity:1;fill-rule:nonzero;stroke:none"
       id="path359" /><path
       d="m 408.89999,176.12 v 1.19999 L 403.44,180.92 l -0.72,-1.2 5.45999,-3.6 v 1.19999"
       style="fill:#000000;fill-opacity:1;fill-rule:nonzero;stroke:none"
       id="path361" /><path
       d="m 408.89999,176.12 -0.48001,0.72 0.48001,0.47999"
       style="fill:#000000;fill-opacity:1;fill-rule:nonzero;stroke:none"
       id="path363" /><path
       d="m 402.95999,173 0.48001,-0.48001 5.45999,3.60001 -0.72,1.19999 L 402.72,173.72 402.95999,173"
       style="fill:#000000;fill-opacity:1;fill-rule:nonzero;stroke:none"
       id="path365" /><path
       d="m 267.72,211.40001 h 70.98 v 1.44 h -70.98 z"
       style="fill:#000000;fill-opacity:1;fill-rule:nonzero;stroke:none"
       id="path367" /><path
       d="m 217.62,247.15999 4.8,-7.67999 4.08,-6.72001 1.92,-3.11999 1.92,-3.12001 1.91999,-2.64 2.4,-2.39999 2.34001,-2.4 2.87999,-1.92001 3.36,-1.67999 3.60001,-1.44001 4.31999,-1.19999 4.8,-0.72 5.51999,-0.48 6.24002,-0.23999 V 212.84 l -6,0.24 -5.51999,0.48 -4.8,0.72 -4.08002,1.2 -3.59999,1.19999 -3.11999,1.68001 -2.64002,1.92 -2.33999,2.16 -2.16001,2.4 -1.92,2.64 -1.91999,2.88 -1.92,3.12 -4.08,6.72 -4.80001,7.67999"
       style="fill:#000000;fill-opacity:1;fill-rule:nonzero;stroke:none"
       id="path369" /><path
       d="M 182.81999,311.23999 182.34,311 l 35.28,-63.84001 1.19999,0.72 -35.28,63.84001 -0.72,-0.48001"
       style="fill:#000000;fill-opacity:1;fill-rule:nonzero;stroke:none"
       id="path371" /><text
       transform="matrix(1,0,0,-0.97709191,189.36,328.76028)"
       style="font-variant:normal;font-weight:normal;font-stretch:normal;font-size:10.3195px;font-family:Arial;-inkscape-font-specification:ArialMT;writing-mode:lr-tb;fill:#000000;fill-opacity:1;fill-rule:nonzero;stroke:none"
       id="text375"><tspan
         x="0 5.5189719 11.037944"
         y="0"
         sodipodi:role="line"
         id="tspan373">Log</tspan></text><text
       transform="matrix(1,0,0,-0.97709191,206.15619,328.76028)"
       style="font-variant:normal;font-weight:normal;font-stretch:normal;font-size:10.3195px;font-family:Arial;-inkscape-font-specification:ArialMT;writing-mode:lr-tb;fill:#000000;fill-opacity:1;fill-rule:nonzero;stroke:none"
       id="text379"><tspan
         x="0"
         y="0"
         id="tspan377">a</tspan></text><text
       transform="matrix(1,0,0,-0.97709191,211.61424,328.76028)"
       style="font-variant:normal;font-weight:normal;font-stretch:normal;font-size:10.3195px;font-family:Arial;-inkscape-font-specification:ArialMT;writing-mode:lr-tb;fill:#000000;fill-opacity:1;fill-rule:nonzero;stroke:none"
       id="text383"><tspan
         x="0"
         y="0"
         id="tspan381">r</tspan></text><text
       transform="matrix(1,0,0,-0.97709191,214.97432,328.76028)"
       style="font-variant:normal;font-weight:normal;font-stretch:normal;font-size:10.3195px;font-family:Arial;-inkscape-font-specification:ArialMT;writing-mode:lr-tb;fill:#000000;fill-opacity:1;fill-rule:nonzero;stroke:none"
       id="text387"><tspan
         x="0"
         y="0"
         id="tspan385">i</tspan></text><text
       transform="matrix(1,0,0,-0.97709191,217.13219,328.76028)"
       style="font-variant:normal;font-weight:normal;font-stretch:normal;font-size:10.3195px;font-family:Arial;-inkscape-font-specification:ArialMT;writing-mode:lr-tb;fill:#000000;fill-opacity:1;fill-rule:nonzero;stroke:none"
       id="text391"><tspan
         x="0"
         y="0"
         id="tspan389">t</tspan></text><text
       transform="matrix(1,0,0,-0.97709191,219.77405,328.76028)"
       style="font-variant:normal;font-weight:normal;font-stretch:normal;font-size:10.3195px;font-family:Arial;-inkscape-font-specification:ArialMT;writing-mode:lr-tb;fill:#000000;fill-opacity:1;fill-rule:nonzero;stroke:none"
       id="text395"><tspan
         x="0"
         y="0"
         id="tspan393">h</tspan></text><text
       transform="matrix(1,0,0,-0.97709191,225.53238,328.76028)"
       style="font-variant:normal;font-weight:normal;font-stretch:normal;font-size:10.3195px;font-family:Arial;-inkscape-font-specification:ArialMT;writing-mode:lr-tb;fill:#000000;fill-opacity:1;fill-rule:nonzero;stroke:none"
       id="text399"><tspan
         x="0"
         y="0"
         id="tspan397">m</tspan></text><text
       transform="matrix(1,0,0,-0.97709191,233.69208,328.76028)"
       style="font-variant:normal;font-weight:normal;font-stretch:normal;font-size:10.3195px;font-family:Arial;-inkscape-font-specification:ArialMT;writing-mode:lr-tb;fill:#000000;fill-opacity:1;fill-rule:nonzero;stroke:none"
       id="text403"><tspan
         x="0 5.5189719"
         y="0"
         sodipodi:role="line"
         id="tspan401">us</tspan></text><text
       transform="matrix(1,0,0,-0.97709191,247.13241,328.76028)"
       style="font-variant:normal;font-weight:normal;font-stretch:normal;font-size:10.3195px;font-family:Arial;-inkscape-font-specification:ArialMT;writing-mode:lr-tb;fill:#000000;fill-opacity:1;fill-rule:nonzero;stroke:none"
       id="text407"><tspan
         x="0 5.5189719 11.037944"
         y="0"
         sodipodi:role="line"
         id="tspan405">der</tspan></text><text
       transform="matrix(1,0,0,-0.97709191,189.36,317.48035)"
       style="font-variant:normal;font-weight:normal;font-stretch:normal;font-size:10.3195px;font-family:Arial;-inkscape-font-specification:ArialMT;writing-mode:lr-tb;fill:#000000;fill-opacity:1;fill-rule:nonzero;stroke:none"
       id="text411"><tspan
         x="0 5.5189719 11.037944"
         y="0"
         sodipodi:role="line"
         id="tspan409">dur</tspan></text><text
       transform="matrix(1,0,0,-0.97709191,203.75795,317.48035)"
       style="font-variant:normal;font-weight:normal;font-stretch:normal;font-size:10.3195px;font-family:Arial;-inkscape-font-specification:ArialMT;writing-mode:lr-tb;fill:#000000;fill-opacity:1;fill-rule:nonzero;stroke:none"
       id="text415"><tspan
         x="0"
         y="0"
         id="tspan413">c</tspan></text><text
       transform="matrix(1,0,0,-0.97709191,208.79805,317.48035)"
       style="font-variant:normal;font-weight:normal;font-stretch:normal;font-size:10.3195px;font-family:Arial;-inkscape-font-specification:ArialMT;writing-mode:lr-tb;fill:#000000;fill-opacity:1;fill-rule:nonzero;stroke:none"
       id="text419"><tspan
         x="0"
         y="0"
         id="tspan417">h</tspan></text><text
       transform="matrix(1,0,0,-0.97709191,214.25609,317.48035)"
       style="font-variant:normal;font-weight:normal;font-stretch:normal;font-size:10.3195px;font-family:Arial;-inkscape-font-specification:ArialMT;writing-mode:lr-tb;fill:#000000;fill-opacity:1;fill-rule:nonzero;stroke:none"
       id="text423"><tspan
         x="0 5.5189719"
         y="0"
         sodipodi:role="line"
         id="tspan421">ge</tspan></text><text
       transform="matrix(1,0,0,-0.97709191,225.53336,317.48035)"
       style="font-variant:normal;font-weight:normal;font-stretch:normal;font-size:10.3195px;font-family:Arial;-inkscape-font-specification:ArialMT;writing-mode:lr-tb;fill:#000000;fill-opacity:1;fill-rule:nonzero;stroke:none"
       id="text427"><tspan
         x="0 5.5189719 11.037944 16.556915 22.075888 27.594858"
         y="0"
         sodipodi:role="line"
         id="tspan425">henden</tspan></text><text
       transform="matrix(1,0,0,-0.97709191,189.36,306.44041)"
       style="font-variant:normal;font-weight:normal;font-stretch:normal;font-size:10.3195px;font-family:Arial;-inkscape-font-specification:ArialMT;writing-mode:lr-tb;fill:#000000;fill-opacity:1;fill-rule:nonzero;stroke:none"
       id="text431"><tspan
         x="0 6.7417293"
         y="0"
         sodipodi:role="line"
         id="tspan429">St</tspan></text><text
       transform="matrix(1,0,0,-0.97709191,198.74347,306.44041)"
       style="font-variant:normal;font-weight:normal;font-stretch:normal;font-size:10.3195px;font-family:Arial;-inkscape-font-specification:ArialMT;writing-mode:lr-tb;fill:#000000;fill-opacity:1;fill-rule:nonzero;stroke:none"
       id="text435"><tspan
         x="0"
         y="0"
         id="tspan433">r</tspan></text><text
       transform="matrix(1,0,0,-0.97709191,202.10349,306.44041)"
       style="font-variant:normal;font-weight:normal;font-stretch:normal;font-size:10.3195px;font-family:Arial;-inkscape-font-specification:ArialMT;writing-mode:lr-tb;fill:#000000;fill-opacity:1;fill-rule:nonzero;stroke:none"
       id="text439"><tspan
         x="0"
         y="0"
         id="tspan437">a</tspan></text><text
       transform="matrix(1,0,0,-0.97709191,207.62233,306.44041)"
       style="font-variant:normal;font-weight:normal;font-stretch:normal;font-size:10.3195px;font-family:Arial;-inkscape-font-specification:ArialMT;writing-mode:lr-tb;fill:#000000;fill-opacity:1;fill-rule:nonzero;stroke:none"
       id="text443"><tspan
         x="0"
         y="0"
         id="tspan441">h</tspan></text><text
       transform="matrix(1,0,0,-0.97709191,213.32074,306.44041)"
       style="font-variant:normal;font-weight:normal;font-stretch:normal;font-size:10.3195px;font-family:Arial;-inkscape-font-specification:ArialMT;writing-mode:lr-tb;fill:#000000;fill-opacity:1;fill-rule:nonzero;stroke:none"
       id="text447"><tspan
         x="0 2.1495519 4.2991037"
         y="0"
         sodipodi:role="line"
         id="tspan445">lin</tspan></text><text
       transform="matrix(1,0,0,-0.97709191,223.13864,306.44041)"
       style="font-variant:normal;font-weight:normal;font-stretch:normal;font-size:10.3195px;font-family:Arial;-inkscape-font-specification:ArialMT;writing-mode:lr-tb;fill:#000000;fill-opacity:1;fill-rule:nonzero;stroke:none"
       id="text451"><tspan
         x="0"
         y="0"
         id="tspan449">t</tspan></text><text
       transform="matrix(1,0,0,-0.97709191,226.02084,306.44041)"
       style="font-variant:normal;font-weight:normal;font-stretch:normal;font-size:10.3195px;font-family:Arial;-inkscape-font-specification:ArialMT;writing-mode:lr-tb;fill:#000000;fill-opacity:1;fill-rule:nonzero;stroke:none"
       id="text455"><tspan
         x="0"
         y="0"
         id="tspan453">e</tspan></text><text
       transform="matrix(1,0,0,-0.97709191,231.53969,306.44041)"
       style="font-variant:normal;font-weight:normal;font-stretch:normal;font-size:10.3195px;font-family:Arial;-inkscape-font-specification:ArialMT;writing-mode:lr-tb;fill:#000000;fill-opacity:1;fill-rule:nonzero;stroke:none"
       id="text459"><tspan
         x="0"
         y="0"
         id="tspan457">n</tspan></text><text
       transform="matrix(1,0,0,-0.97709191,237.05853,306.44041)"
       style="font-variant:normal;font-weight:normal;font-stretch:normal;font-size:10.3195px;font-family:Arial;-inkscape-font-specification:ArialMT;writing-mode:lr-tb;fill:#000000;fill-opacity:1;fill-rule:nonzero;stroke:none"
       id="text463"><tspan
         x="0"
         y="0"
         id="tspan461">s</tspan></text><text
       transform="matrix(1,0,0,-0.97709191,242.09856,306.44041)"
       style="font-variant:normal;font-weight:normal;font-stretch:normal;font-size:10.3195px;font-family:Arial;-inkscape-font-specification:ArialMT;writing-mode:lr-tb;fill:#000000;fill-opacity:1;fill-rule:nonzero;stroke:none"
       id="text467"><tspan
         x="0 2.1495519"
         y="0"
         sodipodi:role="line"
         id="tspan465">it</tspan></text><text
       transform="matrix(1,0,0,-0.97709191,247.12927,306.44041)"
       style="font-variant:normal;font-weight:normal;font-stretch:normal;font-size:10.3195px;font-family:Arial;-inkscape-font-specification:ArialMT;writing-mode:lr-tb;fill:#000000;fill-opacity:1;fill-rule:nonzero;stroke:none"
       id="text471"><tspan
         x="0"
         y="0"
         id="tspan469">ä</tspan></text><text
       transform="matrix(1,0,0,-0.97709191,252.64812,306.44041)"
       style="font-variant:normal;font-weight:normal;font-stretch:normal;font-size:10.3195px;font-family:Arial;-inkscape-font-specification:ArialMT;writing-mode:lr-tb;fill:#000000;fill-opacity:1;fill-rule:nonzero;stroke:none"
       id="text475"><tspan
         x="0"
         y="0"
         id="tspan473">t</tspan></text><text
       transform="matrix(1,0,0,-0.97709191,364.61929,160.70027)"
       style="font-variant:normal;font-weight:normal;font-stretch:normal;font-size:10.3195px;font-family:Arial;-inkscape-font-specification:ArialMT;writing-mode:lr-tb;fill:#000000;fill-opacity:1;fill-rule:nonzero;stroke:none"
       id="text479"><tspan
         x="0 8.3804655"
         y="0"
         sodipodi:role="line"
         id="tspan477">Ma</tspan></text><text
       transform="matrix(1,0,0,-0.97709191,378.45766,160.70027)"
       style="font-variant:normal;font-weight:normal;font-stretch:normal;font-size:10.3195px;font-family:Arial;-inkscape-font-specification:ArialMT;writing-mode:lr-tb;fill:#000000;fill-opacity:1;fill-rule:nonzero;stroke:none"
       id="text483"><tspan
         x="0"
         y="0"
         id="tspan481">s</tspan></text><text
       transform="matrix(1,0,0,-0.97709191,383.49767,160.70027)"
       style="font-variant:normal;font-weight:normal;font-stretch:normal;font-size:10.3195px;font-family:Arial;-inkscape-font-specification:ArialMT;writing-mode:lr-tb;fill:#000000;fill-opacity:1;fill-rule:nonzero;stroke:none"
       id="text487"><tspan
         x="0"
         y="0"
         id="tspan485">s</tspan></text><text
       transform="matrix(1,0,0,-0.97709191,388.53766,160.70027)"
       style="font-variant:normal;font-weight:normal;font-stretch:normal;font-size:10.3195px;font-family:Arial;-inkscape-font-specification:ArialMT;writing-mode:lr-tb;fill:#000000;fill-opacity:1;fill-rule:nonzero;stroke:none"
       id="text491"><tspan
         x="0 5.5219646 11.043929 16.565893 22.087858"
         y="0"
         sodipodi:role="line"
         id="tspan489">enbel</tspan></text><text
       transform="matrix(1,0,0,-0.97709191,412.7831,160.70027)"
       style="font-variant:normal;font-weight:normal;font-stretch:normal;font-size:10.3195px;font-family:Arial;-inkscape-font-specification:ArialMT;writing-mode:lr-tb;fill:#000000;fill-opacity:1;fill-rule:nonzero;stroke:none"
       id="text495"><tspan
         x="0"
         y="0"
         id="tspan493">e</tspan></text><text
       transform="matrix(1,0,0,-0.97709191,418.54134,160.70027)"
       style="font-variant:normal;font-weight:normal;font-stretch:normal;font-size:10.3195px;font-family:Arial;-inkscape-font-specification:ArialMT;writing-mode:lr-tb;fill:#000000;fill-opacity:1;fill-rule:nonzero;stroke:none"
       id="text499"><tspan
         x="0 5.5219646 11.043929"
         y="0"
         sodipodi:role="line"
         id="tspan497">gun</tspan></text><text
       transform="matrix(1,0,0,-0.97709191,435.04311,160.70027)"
       style="font-variant:normal;font-weight:normal;font-stretch:normal;font-size:10.3195px;font-family:Arial;-inkscape-font-specification:ArialMT;writing-mode:lr-tb;fill:#000000;fill-opacity:1;fill-rule:nonzero;stroke:none"
       id="text503"><tspan
         x="0 5.5219646 8.4042006 13.926166 19.44813"
         y="0"
         sodipodi:role="line"
         id="tspan501">g des</tspan></text><g
       id="g505"><g
         id="g507"
         clip-path="url(#clipPath511)"><text
           transform="matrix(1,0,0,-0.97709191,364.62,149.4203)"
           style="font-variant:normal;font-weight:normal;font-stretch:normal;font-size:10.3195px;font-family:Arial;-inkscape-font-specification:ArialMT;writing-mode:lr-tb;fill:#000000;fill-opacity:1;fill-rule:nonzero;stroke:none"
           id="text515"><tspan
             x="0"
             y="0"
             id="tspan513">A</tspan></text></g></g><text
       transform="matrix(1,0,0,-0.97709191,371.34,149.4203)"
       style="font-variant:normal;font-weight:normal;font-stretch:normal;font-size:10.3195px;font-family:Arial;-inkscape-font-specification:ArialMT;writing-mode:lr-tb;fill:#000000;fill-opacity:1;fill-rule:nonzero;stroke:none"
       id="text519"><tspan
         x="0 5.5239253 10.469958 15.993883"
         y="0"
         sodipodi:role="line"
         id="tspan517">bsor</tspan></text><text
       transform="matrix(1,0,0,-0.97709191,390.69397,149.4203)"
       style="font-variant:normal;font-weight:normal;font-stretch:normal;font-size:10.3195px;font-family:Arial;-inkscape-font-specification:ArialMT;writing-mode:lr-tb;fill:#000000;fill-opacity:1;fill-rule:nonzero;stroke:none"
       id="text523"><tspan
         x="0 5.5239253 11.047851"
         y="0"
         sodipodi:role="line"
         id="tspan521">ber</tspan></text><text
       transform="matrix(1,0,0,-0.97709191,405.10187,149.4203)"
       style="font-variant:normal;font-weight:normal;font-stretch:normal;font-size:10.3195px;font-family:Arial;-inkscape-font-specification:ArialMT;writing-mode:lr-tb;fill:#000000;fill-opacity:1;fill-rule:nonzero;stroke:none"
       id="text527"><tspan
         x="0"
         y="0"
         id="tspan525">s</tspan></text><text
       transform="matrix(1,0,0,-0.97709191,361.73978,209.66074)"
       style="font-variant:normal;font-weight:normal;font-stretch:normal;font-size:10.3195px;font-family:Arial;-inkscape-font-specification:ArialMT;writing-mode:lr-tb;fill:#000000;fill-opacity:1;fill-rule:nonzero;stroke:none"
       id="text531"><tspan
         x="0"
         y="0"
         id="tspan529">U</tspan></text><text
       transform="matrix(1,0,0,-0.97709191,368.93764,209.66074)"
       style="font-variant:normal;font-weight:normal;font-stretch:normal;font-size:10.3195px;font-family:Arial;-inkscape-font-specification:ArialMT;writing-mode:lr-tb;fill:#000000;fill-opacity:1;fill-rule:nonzero;stroke:none"
       id="text535"><tspan
         x="0"
         y="0"
         id="tspan533">n</tspan></text><text
       transform="matrix(1,0,0,-0.97709191,374.4565,209.66074)"
       style="font-variant:normal;font-weight:normal;font-stretch:normal;font-size:10.3195px;font-family:Arial;-inkscape-font-specification:ArialMT;writing-mode:lr-tb;fill:#000000;fill-opacity:1;fill-rule:nonzero;stroke:none"
       id="text539"><tspan
         x="0"
         y="0"
         id="tspan537">t</tspan></text><text
       transform="matrix(1,0,0,-0.97709191,377.33769,209.66074)"
       style="font-variant:normal;font-weight:normal;font-stretch:normal;font-size:10.3195px;font-family:Arial;-inkscape-font-specification:ArialMT;writing-mode:lr-tb;fill:#000000;fill-opacity:1;fill-rule:nonzero;stroke:none"
       id="text543"><tspan
         x="0"
         y="0"
         id="tspan541">e</tspan></text><text
       transform="matrix(1,0,0,-0.97709191,382.79568,209.66074)"
       style="font-variant:normal;font-weight:normal;font-stretch:normal;font-size:10.3195px;font-family:Arial;-inkscape-font-specification:ArialMT;writing-mode:lr-tb;fill:#000000;fill-opacity:1;fill-rule:nonzero;stroke:none"
       id="text547"><tspan
         x="0 3.3600292"
         y="0"
         sodipodi:role="line"
         id="tspan545">rg</tspan></text><text
       transform="matrix(1,0,0,-0.97709191,391.67458,209.66074)"
       style="font-variant:normal;font-weight:normal;font-stretch:normal;font-size:10.3195px;font-family:Arial;-inkscape-font-specification:ArialMT;writing-mode:lr-tb;fill:#000000;fill-opacity:1;fill-rule:nonzero;stroke:none"
       id="text551"><tspan
         x="0 3.3600292"
         y="0"
         sodipodi:role="line"
         id="tspan549">ru</tspan></text><text
       transform="matrix(1,0,0,-0.97709191,400.55347,209.66074)"
       style="font-variant:normal;font-weight:normal;font-stretch:normal;font-size:10.3195px;font-family:Arial;-inkscape-font-specification:ArialMT;writing-mode:lr-tb;fill:#000000;fill-opacity:1;fill-rule:nonzero;stroke:none"
       id="text555"><tspan
         x="0"
         y="0"
         id="tspan553">n</tspan></text><text
       transform="matrix(1,0,0,-0.97709191,406.07233,209.66074)"
       style="font-variant:normal;font-weight:normal;font-stretch:normal;font-size:10.3195px;font-family:Arial;-inkscape-font-specification:ArialMT;writing-mode:lr-tb;fill:#000000;fill-opacity:1;fill-rule:nonzero;stroke:none"
       id="text559"><tspan
         x="0"
         y="0"
         id="tspan557">d</tspan></text><text
       transform="matrix(1,0,0,-0.97709191,234.18031,160.22021)"
       style="font-variant:normal;font-weight:normal;font-stretch:normal;font-size:10.3195px;font-family:Arial;-inkscape-font-specification:ArialMT;writing-mode:lr-tb;fill:#000000;fill-opacity:1;fill-rule:nonzero;stroke:none"
       id="text563"><tspan
         x="0"
         y="0"
         id="tspan561">R</tspan></text><text
       transform="matrix(0.99811205,0,0,-1,242.58,157.5804)"
       style="font-variant:normal;font-weight:normal;font-stretch:normal;font-size:8.16231px;font-family:Arial;-inkscape-font-specification:ArialMT;writing-mode:lr-tb;fill:#000000;fill-opacity:1;fill-rule:nonzero;stroke:none"
       id="text567"><tspan
         x="0 6.7323551"
         y="0"
         sodipodi:role="line"
         id="tspan565">ma</tspan></text><text
       transform="matrix(0.99811205,0,0,-1,253.85866,157.5804)"
       style="font-variant:normal;font-weight:normal;font-stretch:normal;font-size:8.16231px;font-family:Arial;-inkscape-font-specification:ArialMT;writing-mode:lr-tb;fill:#000000;fill-opacity:1;fill-rule:nonzero;stroke:none"
       id="text571"><tspan
         x="0"
         y="0"
         id="tspan569">x</tspan></text><path
       d="m 182.81999,211.64 h 2.39999 v 1.2 h -2.39999 z"
       style="fill:#000000;fill-opacity:1;fill-rule:nonzero;stroke:none"
       id="path573" /><path
       d="m 186.65999,211.64 h 2.39999 v 1.2 h -2.39999 z"
       style="fill:#000000;fill-opacity:1;fill-rule:nonzero;stroke:none"
       id="path575" /><path
       d="m 190.25999,211.64 h 2.64 v 1.2 h -2.64 z"
       style="fill:#000000;fill-opacity:1;fill-rule:nonzero;stroke:none"
       id="path577" /><path
       d="M 194.10001,211.64 H 196.5 v 1.2 h -2.39999 z"
       style="fill:#000000;fill-opacity:1;fill-rule:nonzero;stroke:none"
       id="path579" /><path
       d="m 197.7,211.64 h 2.64 v 1.2 h -2.64 z"
       style="fill:#000000;fill-opacity:1;fill-rule:nonzero;stroke:none"
       id="path581" /><path
       d="m 201.53999,211.64 h 2.39999 v 1.2 h -2.39999 z"
       style="fill:#000000;fill-opacity:1;fill-rule:nonzero;stroke:none"
       id="path583" /><path
       d="m 205.37999,211.64 h 2.39999 v 1.2 h -2.39999 z"
       style="fill:#000000;fill-opacity:1;fill-rule:nonzero;stroke:none"
       id="path585" /><path
       d="m 208.98,211.64 h 2.64 v 1.2 h -2.64 z"
       style="fill:#000000;fill-opacity:1;fill-rule:nonzero;stroke:none"
       id="path587" /><path
       d="m 212.81999,211.64 h 2.39999 v 1.2 h -2.39999 z"
       style="fill:#000000;fill-opacity:1;fill-rule:nonzero;stroke:none"
       id="path589" /><path
       d="m 216.42,211.64 h 2.64 v 1.2 h -2.64 z"
       style="fill:#000000;fill-opacity:1;fill-rule:nonzero;stroke:none"
       id="path591" /><path
       d="m 220.25999,211.64 h 2.39999 v 1.2 h -2.39999 z"
       style="fill:#000000;fill-opacity:1;fill-rule:nonzero;stroke:none"
       id="path593" /><path
       d="M 224.10001,211.64 H 226.5 v 1.2 h -2.39999 z"
       style="fill:#000000;fill-opacity:1;fill-rule:nonzero;stroke:none"
       id="path595" /><path
       d="m 227.7,211.64 h 2.64 v 1.2 h -2.64 z"
       style="fill:#000000;fill-opacity:1;fill-rule:nonzero;stroke:none"
       id="path597" /><path
       d="m 231.53999,211.64 h 2.39999 v 1.2 h -2.39999 z"
       style="fill:#000000;fill-opacity:1;fill-rule:nonzero;stroke:none"
       id="path599" /><path
       d="m 235.14,211.64 h 2.58 v 1.2 h -2.58 z"
       style="fill:#000000;fill-opacity:1;fill-rule:nonzero;stroke:none"
       id="path601" /><path
       d="m 238.92,211.64 h 2.39999 v 1.2 H 238.92 Z"
       style="fill:#000000;fill-opacity:1;fill-rule:nonzero;stroke:none"
       id="path603" /><path
       d="m 242.75999,211.64 h 2.39999 v 1.2 h -2.39999 z"
       style="fill:#000000;fill-opacity:1;fill-rule:nonzero;stroke:none"
       id="path605" /><path
       d="M 246.36,211.64 H 249 v 1.2 h -2.64 z"
       style="fill:#000000;fill-opacity:1;fill-rule:nonzero;stroke:none"
       id="path607" /><path
       d="m 250.2,211.64 h 2.39999 v 1.2 H 250.2 Z"
       style="fill:#000000;fill-opacity:1;fill-rule:nonzero;stroke:none"
       id="path609" /><path
       d="m 253.8,211.64 h 2.64 v 1.2 h -2.64 z"
       style="fill:#000000;fill-opacity:1;fill-rule:nonzero;stroke:none"
       id="path611" /><path
       d="m 257.63998,211.64 h 2.39999 v 1.2 h -2.39999 z"
       style="fill:#000000;fill-opacity:1;fill-rule:nonzero;stroke:none"
       id="path613" /><path
       d="m 261.23999,211.64 h 2.64 v 1.2 h -2.64 z"
       style="fill:#000000;fill-opacity:1;fill-rule:nonzero;stroke:none"
       id="path615" /><path
       d="m 265.07999,211.64 h 2.39999 v 1.2 h -2.39999 z"
       style="fill:#000000;fill-opacity:1;fill-rule:nonzero;stroke:none"
       id="path617" /><path
       d="m 268.91998,211.64 h 2.39999 v 1.2 h -2.39999 z"
       style="fill:#000000;fill-opacity:1;fill-rule:nonzero;stroke:none"
       id="path619" /><path
       d="m 272.51999,211.64 h 2.64 v 1.2 h -2.64 z"
       style="fill:#000000;fill-opacity:1;fill-rule:nonzero;stroke:none"
       id="path621" /><path
       d="m 276.35999,211.64 h 2.39999 v 1.2 h -2.39999 z"
       style="fill:#000000;fill-opacity:1;fill-rule:nonzero;stroke:none"
       id="path623" /><path
       d="m 279.95999,211.64 h 2.64 v 1.2 h -2.64 z"
       style="fill:#000000;fill-opacity:1;fill-rule:nonzero;stroke:none"
       id="path625" /><path
       d="m 283.80002,211.64 h 2.39999 v 1.2 h -2.39999 z"
       style="fill:#000000;fill-opacity:1;fill-rule:nonzero;stroke:none"
       id="path627" /><path
       d="m 287.63998,211.64 h 2.39999 v 1.2 h -2.39999 z"
       style="fill:#000000;fill-opacity:1;fill-rule:nonzero;stroke:none"
       id="path629" /><path
       d="m 291.23999,211.64 h 2.58 v 1.2 h -2.58 z"
       style="fill:#000000;fill-opacity:1;fill-rule:nonzero;stroke:none"
       id="path631" /><path
       d="m 295.01999,211.64 h 2.39999 v 1.2 h -2.39999 z"
       style="fill:#000000;fill-opacity:1;fill-rule:nonzero;stroke:none"
       id="path633" /><path
       d="m 298.62,211.64 h 2.64 v 1.2 h -2.64 z"
       style="fill:#000000;fill-opacity:1;fill-rule:nonzero;stroke:none"
       id="path635" /><path
       d="m 302.45999,211.64 h 2.39999 v 1.2 h -2.39999 z"
       style="fill:#000000;fill-opacity:1;fill-rule:nonzero;stroke:none"
       id="path637" /><path
       d="m 306.30002,211.64 h 2.39999 v 1.2 h -2.39999 z"
       style="fill:#000000;fill-opacity:1;fill-rule:nonzero;stroke:none"
       id="path639" /><path
       d="m 309.89999,211.64 h 2.64 v 1.2 h -2.64 z"
       style="fill:#000000;fill-opacity:1;fill-rule:nonzero;stroke:none"
       id="path641" /><path
       d="m 313.73999,211.64 h 2.39999 v 1.2 h -2.39999 z"
       style="fill:#000000;fill-opacity:1;fill-rule:nonzero;stroke:none"
       id="path643" /><path
       d="m 317.34,211.64 h 2.64 v 1.2 h -2.64 z"
       style="fill:#000000;fill-opacity:1;fill-rule:nonzero;stroke:none"
       id="path645" /><path
       d="m 321.17999,211.64 h 2.39999 v 1.2 h -2.39999 z"
       style="fill:#000000;fill-opacity:1;fill-rule:nonzero;stroke:none"
       id="path647" /><path
       d="m 325.01999,211.64 h 2.39999 v 1.2 h -2.39999 z"
       style="fill:#000000;fill-opacity:1;fill-rule:nonzero;stroke:none"
       id="path649" /><path
       d="m 328.62,211.64 h 2.64 v 1.2 h -2.64 z"
       style="fill:#000000;fill-opacity:1;fill-rule:nonzero;stroke:none"
       id="path651" /><path
       d="m 332.45999,211.64 h 2.39999 v 1.2 h -2.39999 z"
       style="fill:#000000;fill-opacity:1;fill-rule:nonzero;stroke:none"
       id="path653" /><path
       d="m 336.06,211.64 h 2.64 v 1.2 h -2.64 z"
       style="fill:#000000;fill-opacity:1;fill-rule:nonzero;stroke:none"
       id="path655" /><path
       d="m 339.89999,211.64 h 2.39999 v 1.2 h -2.39999 z"
       style="fill:#000000;fill-opacity:1;fill-rule:nonzero;stroke:none"
       id="path657" /><path
       d="m 343.5,211.64 h 2.64 v 1.2 h -2.64 z"
       style="fill:#000000;fill-opacity:1;fill-rule:nonzero;stroke:none"
       id="path659" /><path
       d="m 347.34,211.64 h 2.34 v 1.2 h -2.34 z"
       style="fill:#000000;fill-opacity:1;fill-rule:nonzero;stroke:none"
       id="path661" /><path
       d="m 351.12,211.64 h 2.39999 v 1.2 H 351.12 Z"
       style="fill:#000000;fill-opacity:1;fill-rule:nonzero;stroke:none"
       id="path663" /><path
       d="m 354.72,211.64 h 2.64 v 1.2 h -2.64 z"
       style="fill:#000000;fill-opacity:1;fill-rule:nonzero;stroke:none"
       id="path665" /><path
       d="m 359.75998,212.12 v 0.72 H 358.56 v -1.2 h 1.19998 v 0.48"
       style="fill:#000000;fill-opacity:1;fill-rule:nonzero;stroke:none"
       id="path667" /><path
       d="m 184.5,309.56 -0.96001,-0.72 -1.19999,2.16 0.96,0.72"
       style="fill:#000000;fill-opacity:1;fill-rule:nonzero;stroke:none"
       id="path669" /><path
       d="m 186.42,306.20001 -0.96001,-0.72003 -1.44,2.16 1.20001,0.72001"
       style="fill:#000000;fill-opacity:1;fill-rule:nonzero;stroke:none"
       id="path671" /><path
       d="m 188.34,302.84 -1.2,-0.48001 -1.2,2.16 1.2,0.48001"
       style="fill:#000000;fill-opacity:1;fill-rule:nonzero;stroke:none"
       id="path673" /><path
       d="M 190.01999,299.72 189.06,299 l -1.2,2.16 0.95999,0.72"
       style="fill:#000000;fill-opacity:1;fill-rule:nonzero;stroke:none"
       id="path675" /><path
       d="m 191.94,296.35999 -1.20001,-0.47999 -1.2,2.16001 1.2,0.47998"
       style="fill:#000000;fill-opacity:1;fill-rule:nonzero;stroke:none"
       id="path677" /><path
       d="m 193.86,293.23999 -1.20001,-0.72 -1.2,2.16 0.96001,0.72"
       style="fill:#000000;fill-opacity:1;fill-rule:nonzero;stroke:none"
       id="path679" /><path
       d="m 195.53999,289.88 -0.95999,-0.72 -1.20001,2.4 0.96001,0.48001"
       style="fill:#000000;fill-opacity:1;fill-rule:nonzero;stroke:none"
       id="path681" /><path
       d="m 197.45999,286.51999 -1.2,-0.47998 -1.19999,2.16 1.19999,0.47998"
       style="fill:#000000;fill-opacity:1;fill-rule:nonzero;stroke:none"
       id="path683" /><path
       d="m 199.14,283.39999 -0.96001,-0.72 -1.19999,2.16001 0.96,0.72"
       style="fill:#000000;fill-opacity:1;fill-rule:nonzero;stroke:none"
       id="path685" /><path
       d="m 201.06,280.04001 -0.95999,-0.48001 -1.44002,2.16 1.20001,0.48001"
       style="fill:#000000;fill-opacity:1;fill-rule:nonzero;stroke:none"
       id="path687" /><path
       d="m 202.98,276.91998 -1.2,-0.71997 -1.2,2.15998 1.2,0.72"
       style="fill:#000000;fill-opacity:1;fill-rule:nonzero;stroke:none"
       id="path689" /><path
       d="m 204.65999,273.56 -0.95999,-0.72 -1.2,2.39999 0.95999,0.48001"
       style="fill:#000000;fill-opacity:1;fill-rule:nonzero;stroke:none"
       id="path691" /><path
       d="m 206.58,270.20001 -1.20001,-0.48001 -1.2,2.16 1.2,0.47999"
       style="fill:#000000;fill-opacity:1;fill-rule:nonzero;stroke:none"
       id="path693" /><path
       d="m 208.5,267.07999 -1.2,-0.72 -1.19999,2.16 0.95999,0.72"
       style="fill:#000000;fill-opacity:1;fill-rule:nonzero;stroke:none"
       id="path695" /><path
       d="m 210.17999,263.72 -0.95999,-0.48001 -1.20001,2.16 0.96001,0.48001"
       style="fill:#000000;fill-opacity:1;fill-rule:nonzero;stroke:none"
       id="path697" /><path
       d="m 212.10001,260.60001 -1.2,-0.72001 -1.20001,2.16001 1.20001,0.71997"
       style="fill:#000000;fill-opacity:1;fill-rule:nonzero;stroke:none"
       id="path699" /><path
       d="m 213.78,257.23999 -0.96001,-0.48001 -1.19999,2.16 0.96,0.48001"
       style="fill:#000000;fill-opacity:1;fill-rule:nonzero;stroke:none"
       id="path701" /><path
       d="m 215.7,253.87999 -0.96001,-0.47998 -1.43999,2.15999 1.2,0.72"
       style="fill:#000000;fill-opacity:1;fill-rule:nonzero;stroke:none"
       id="path703" /><path
       d="m 217.62,250.75999 -1.2,-0.72 -1.2,2.16001 1.2,0.72"
       style="fill:#000000;fill-opacity:1;fill-rule:nonzero;stroke:none"
       id="path705" /><path
       d="m 219.3,247.40001 -0.96,-0.48001 -1.2,2.16 0.96001,0.48"
       style="fill:#000000;fill-opacity:1;fill-rule:nonzero;stroke:none"
       id="path707" /><path
       d="m 221.22,244.28 -1.20001,-0.72 -1.2,2.16 1.2,0.71999"
       style="fill:#000000;fill-opacity:1;fill-rule:nonzero;stroke:none"
       id="path709" /><path
       d="m 223.14,240.92 -1.2,-0.48001 -1.20001,2.16002 L 221.7,243.08"
       style="fill:#000000;fill-opacity:1;fill-rule:nonzero;stroke:none"
       id="path711" /><path
       d="m 224.81999,237.56 -0.95999,-0.48 -1.20001,2.15999 0.96001,0.72"
       style="fill:#000000;fill-opacity:1;fill-rule:nonzero;stroke:none"
       id="path713" /><path
       d="m 226.73999,234.43999 -1.2,-0.71999 -1.19999,2.15999 1.19999,0.72002"
       style="fill:#000000;fill-opacity:1;fill-rule:nonzero;stroke:none"
       id="path715" /><path
       d="m 228.42,231.08 -0.96001,-0.47999 -1.2,2.15998 0.96001,0.48"
       style="fill:#000000;fill-opacity:1;fill-rule:nonzero;stroke:none"
       id="path717" /><path
       d="m 230.34,227.95999 -0.96001,-0.72 -1.43999,2.16002 1.2,0.71999"
       style="fill:#000000;fill-opacity:1;fill-rule:nonzero;stroke:none"
       id="path719" /><path
       d="M 232.25999,224.60001 231.06,224.12 l -1.2,2.16 1.2,0.47999"
       style="fill:#000000;fill-opacity:1;fill-rule:nonzero;stroke:none"
       id="path721" /><path
       d="m 233.93999,221.48 -0.95999,-0.72001 -1.2,2.16001 0.95999,0.72"
       style="fill:#000000;fill-opacity:1;fill-rule:nonzero;stroke:none"
       id="path723" /><path
       d="m 235.86,218.12 -1.20001,-0.71999 -1.2,2.15999 1.2,0.72"
       style="fill:#000000;fill-opacity:1;fill-rule:nonzero;stroke:none"
       id="path725" /><path
       d="m 237.72,214.75999 -1.20001,-0.47999 -1.14,2.16 0.90001,0.48"
       style="fill:#000000;fill-opacity:1;fill-rule:nonzero;stroke:none"
       id="path727" /><path
       d="m 237.95999,212.84 0.72,0.24 -0.47999,0.72 -0.96001,-0.72 0.24001,-0.72 0.47999,0.48"
       style="fill:#000000;fill-opacity:1;fill-rule:nonzero;stroke:none"
       id="path729" /><path
       d="M 238.43999,212.60001 H 237.72 v -42.72002 h 1.43999 v 42.72002 h -0.72"
       style="fill:#000000;fill-opacity:1;fill-rule:nonzero;stroke:none"
       id="path731" /></g></svg>
