<?xml version="1.0" encoding="UTF-8" standalone="no"?>
<!-- Created with Inkscape (http://www.inkscape.org/) -->

<svg
   version="1.1"
   id="svg9"
   xml:space="preserve"
   width="143.79582mm"
   height="76.053368mm"
   viewBox="0 0 543.48027 287.44579"
   sodipodi:docname="Michelson1.svg"
   inkscape:version="1.1.1 (3bf5ae0d25, 2021-09-20)"
   xmlns:inkscape="http://www.inkscape.org/namespaces/inkscape"
   xmlns:sodipodi="http://sodipodi.sourceforge.net/DTD/sodipodi-0.dtd"
   xmlns="http://www.w3.org/2000/svg"
   xmlns:svg="http://www.w3.org/2000/svg"><defs
     id="defs13"><clipPath
       clipPathUnits="userSpaceOnUse"
       id="clipPath661"><path
         d="m 209.87999,118.16 h 4.92 v 7.74001 h -4.92 z"
         id="path659" /></clipPath><clipPath
       clipPathUnits="userSpaceOnUse"
       id="clipPath673"><path
         d="m 160.8,118.16 h 4.92 v 7.74001 h -4.92 z"
         id="path671" /></clipPath><clipPath
       clipPathUnits="userSpaceOnUse"
       id="clipPath697"><path
         d="m 385.20001,112.46001 h 3.3 v 13.44 h -3.3 z"
         id="path695" /></clipPath><clipPath
       clipPathUnits="userSpaceOnUse"
       id="clipPath773"><path
         d="m 353.51999,118.16 h 4.92 v 7.74001 h -4.92 z"
         id="path771" /></clipPath><clipPath
       clipPathUnits="userSpaceOnUse"
       id="clipPath785"><path
         d="m 302.39999,118.16 h 4.92 v 7.74001 h -4.92 z"
         id="path783" /></clipPath><clipPath
       clipPathUnits="userSpaceOnUse"
       id="clipPath807"><path
         d="m 338.82001,59.24001 h 6.60001 v 14.64 h -6.60001 z"
         id="path805" /></clipPath><clipPath
       clipPathUnits="userSpaceOnUse"
       id="clipPath819"><path
         d="m 326.94,59.24001 h 6.53999 v 14.64 H 326.94 Z"
         id="path817" /></clipPath><clipPath
       clipPathUnits="userSpaceOnUse"
       id="clipPath831"><path
         d="M 304.85999,59.24001 H 311.46 v 14.64 h -6.60001 z"
         id="path829" /></clipPath></defs><sodipodi:namedview
     id="namedview11"
     pagecolor="#505050"
     bordercolor="#ffffff"
     borderopacity="1"
     inkscape:pageshadow="0"
     inkscape:pageopacity="0"
     inkscape:pagecheckerboard="1"
     showgrid="false"
     units="mm"
     fit-margin-top="5"
     lock-margins="true"
     fit-margin-left="5"
     fit-margin-right="5"
     fit-margin-bottom="5"
     inkscape:zoom="0.52731588"
     inkscape:cx="351.78156"
     inkscape:cy="193.43245"
     inkscape:window-width="1368"
     inkscape:window-height="842"
     inkscape:window-x="-6"
     inkscape:window-y="-6"
     inkscape:window-maximized="1"
     inkscape:current-layer="g15"
     inkscape:document-units="mm" /><g
     id="g15"
     inkscape:groupmode="layer"
     inkscape:label="V401_anleitung"
     transform="matrix(1.3333333,0,0,-1.3333333,-154.33948,1011.0548)"><path
       d="M 498.89999,637.76001 H 500.28 V 678.62 h -2.46002 v -40.85999 h 1.08001"
       style="fill:#000000;fill-opacity:1;fill-rule:nonzero;stroke:none"
       id="path37" /><path
       d="m 507.17999,670.33997 0.29999,0.78003 -7.97998,4.14001 -0.84,-1.62 8.21997,-3.90002 0.30002,0.59998"
       style="fill:#000000;fill-opacity:1;fill-rule:nonzero;stroke:none"
       id="path39" /><path
       d="m 507.17999,666.44 0.29999,0.53998 -7.97998,4.14002 -0.84,-1.38001 8.21997,-4.13995 0.30002,0.83996"
       style="fill:#000000;fill-opacity:1;fill-rule:nonzero;stroke:none"
       id="path41" /><path
       d="m 507.17999,662.29999 0.29999,0.53998 -7.97998,4.14001 -0.84,-1.37994 8.21997,-4.14008 0.30002,0.84003"
       style="fill:#000000;fill-opacity:1;fill-rule:nonzero;stroke:none"
       id="path43" /><path
       d="m 507.17999,674.47998 0.29999,0.78003 -7.97998,4.14001 -0.84,-1.62005 8.21997,-4.13996 0.30002,0.83997"
       style="fill:#000000;fill-opacity:1;fill-rule:nonzero;stroke:none"
       id="path45" /><path
       d="m 507.17999,654.01996 0.29999,0.84003 L 499.5,659 l -0.84,-1.67999 8.21997,-3.84003 0.30002,0.53998"
       style="fill:#000000;fill-opacity:1;fill-rule:nonzero;stroke:none"
       id="path47" /><path
       d="m 507.17999,650.17999 0.29999,0.53998 -7.97998,4.14002 -0.84,-1.38001 8.21997,-4.14001 0.30002,0.84002"
       style="fill:#000000;fill-opacity:1;fill-rule:nonzero;stroke:none"
       id="path49" /><path
       d="m 507.17999,641.90002 0.29999,0.83997 -7.97998,3.83997 -0.84,-1.37995 8.21997,-4.14001 0.30002,0.84002"
       style="fill:#000000;fill-opacity:1;fill-rule:nonzero;stroke:none"
       id="path51" /><path
       d="m 507.17999,646.03998 0.29999,0.53998 -7.97998,4.14001 -0.84,-1.38 8.21997,-4.13996 0.30002,0.83997"
       style="fill:#000000;fill-opacity:1;fill-rule:nonzero;stroke:none"
       id="path53" /><path
       d="m 507.17999,637.76001 0.29999,0.84003 -7.97998,4.13995 -0.84,-1.67999 8.21997,-3.84003 0.30002,0.54004"
       style="fill:#000000;fill-opacity:1;fill-rule:nonzero;stroke:none"
       id="path55" /><path
       d="M 507.17999,658.15997 507.47998,659 499.5,662.83997 l -0.84,-1.38001 8.21997,-4.13995 0.30002,0.83996"
       style="fill:#000000;fill-opacity:1;fill-rule:nonzero;stroke:none"
       id="path57" /><path
       d="m 340.25998,735.73999 v 1.08002 h -40.43997 v -2.46002 h 40.43997 v 1.38"
       style="fill:#000000;fill-opacity:1;fill-rule:nonzero;stroke:none"
       id="path59" /><path
       d="m 307.80002,743.71997 -0.60001,0.23999 -4.08001,-7.97998 1.38,-0.84003 4.07999,8.28003 -0.77997,0.29999"
       style="fill:#000000;fill-opacity:1;fill-rule:nonzero;stroke:none"
       id="path61" /><path
       d="m 311.88,743.71997 -0.77999,0.23999 -3.9,-7.97998 1.37998,-0.84003 4.14001,8.28003 -0.84,0.29999"
       style="fill:#000000;fill-opacity:1;fill-rule:nonzero;stroke:none"
       id="path63" /><path
       d="m 316.01999,743.71997 -0.78,0.23999 -4.13998,-7.97998 1.61999,-0.84003 3.9,8.28003 -0.60001,0.29999"
       style="fill:#000000;fill-opacity:1;fill-rule:nonzero;stroke:none"
       id="path65" /><path
       d="m 303.89999,743.71997 -0.77999,0.23999 -4.14002,-7.97998 1.38001,-0.84003 4.14001,8.28003 -0.60001,0.29999"
       style="fill:#000000;fill-opacity:1;fill-rule:nonzero;stroke:none"
       id="path67" /><path
       d="m 324,743.71997 -0.54001,0.23999 -4.13998,-7.97998 1.38,-0.84003 4.13999,8.28003 -0.84,0.29999"
       style="fill:#000000;fill-opacity:1;fill-rule:nonzero;stroke:none"
       id="path69" /><path
       d="m 328.13998,743.71997 -0.53997,0.23999 -4.14002,-7.97998 1.38001,-0.84003 4.13998,8.28003 -0.84,0.29999"
       style="fill:#000000;fill-opacity:1;fill-rule:nonzero;stroke:none"
       id="path71" /><path
       d="m 336.41998,743.71997 -0.83999,0.23999 -4.13999,-7.97998 1.68,-0.84003 3.83999,8.28003 -0.54001,0.29999"
       style="fill:#000000;fill-opacity:1;fill-rule:nonzero;stroke:none"
       id="path73" /><path
       d="m 332.28,743.71997 -0.84,0.23999 -3.83999,-7.97998 1.37997,-0.84003 4.14002,8.28003 -0.84,0.29999"
       style="fill:#000000;fill-opacity:1;fill-rule:nonzero;stroke:none"
       id="path75" /><path
       d="m 340.25998,743.71997 -0.53998,0.23999 -4.14001,-7.97998 1.38,-0.84003 4.14002,8.28003 -0.84003,0.29999"
       style="fill:#000000;fill-opacity:1;fill-rule:nonzero;stroke:none"
       id="path77" /><path
       d="m 320.16,743.71997 -0.83999,0.23999 -4.08002,-7.97998 1.38001,-0.84003 4.08001,8.28003 -0.54001,0.29999"
       style="fill:#000000;fill-opacity:1;fill-rule:nonzero;stroke:none"
       id="path79" /><path
       d="M 320.70001,670.88 321,670.33997 v 65.40002 h -1.67999 v -65.70001"
       style="fill:#000000;fill-opacity:1;fill-rule:nonzero;stroke:none"
       id="path81" /><path
       d="m 325.67999,659.53998 0.84,0.29999 -5.81998,11.04003 -1.38,-0.84002 L 324.84,659 l 0.83999,0.53998"
       style="fill:#000000;fill-opacity:1;fill-rule:nonzero;stroke:none"
       id="path83" /><path
       d="M 320.16,709.21997 H 321 v 1.91998 h -1.67999 v -1.91998 H 320.16"
       style="fill:#000000;fill-opacity:1;fill-rule:nonzero;stroke:none"
       id="path85" /><path
       d="m 319.32001,707.53998 h 1.38 l 4.13999,6.36004 -1.38001,1.13996 -4.13998,-6.65998 h 1.38"
       style="fill:#000000;fill-opacity:1;fill-rule:nonzero;stroke:none"
       id="path87" /><path
       d="m 319.32001,707.53998 0.83999,0.60003 0.54001,-0.60003"
       style="fill:#000000;fill-opacity:1;fill-rule:nonzero;stroke:none"
       id="path89" /><path
       d="m 315.78,714.44 -0.54001,-0.53998 4.08002,-6.36004 1.38,0.84002 -4.08001,6.65998 -0.84,-0.59998"
       style="fill:#000000;fill-opacity:1;fill-rule:nonzero;stroke:none"
       id="path91" /><path
       d="m 319.32001,698.47998 h 1.38 L 324.84,692.12 l -1.38001,-1.14002 -4.13998,6.66003 h 1.38"
       style="fill:#000000;fill-opacity:1;fill-rule:nonzero;stroke:none"
       id="path93" /><path
       d="M 319.32001,698.47998 320.16,697.88 l 0.54001,0.59998"
       style="fill:#000000;fill-opacity:1;fill-rule:nonzero;stroke:none"
       id="path95" /><path
       d="m 315.78,691.57996 -0.54001,0.54004 4.08002,6.35998 1.38,-0.83997 -4.08001,-6.66003 -0.84,0.59998"
       style="fill:#000000;fill-opacity:1;fill-rule:nonzero;stroke:none"
       id="path97" /><path
       d="M 320.16,690.73999 H 321 v 6.06 h -1.67999 v -6.06 H 320.16"
       style="fill:#000000;fill-opacity:1;fill-rule:nonzero;stroke:none"
       id="path99" /><path
       d="m 332.28,678.62 -0.54001,0.53997 -44.63998,-32.58001 0.83999,-1.37995 44.88001,32.81995 L 332.28,678.62"
       style="fill:#000000;fill-opacity:1;fill-rule:nonzero;stroke:none"
       id="path101" /><path
       d="m 307.5,646.57996 0.30002,0.30004 h -20.40003 v -1.67999 H 308.34"
       style="fill:#000000;fill-opacity:1;fill-rule:nonzero;stroke:none"
       id="path103" /><path
       d="m 352.67999,677.77997 -0.54001,1.38 -44.63998,-32.58001 0.84,-1.37995 44.57998,32.81995 -0.23999,1.38006"
       style="fill:#000000;fill-opacity:1;fill-rule:nonzero;stroke:none"
       id="path105" /><path
       d="m 332.28,678.62 v -0.84003 h 20.39999 v 1.62005 H 332.28 V 678.62"
       style="fill:#000000;fill-opacity:1;fill-rule:nonzero;stroke:none"
       id="path107" /><path
       d="m 368.94,641.90002 1.91999,1.61994 m 1.08001,0.60004 2.22,1.61999 m 1.07999,0.83997 1.92001,1.38 m 1.14002,0.84003 2.15997,1.61999 m 1.14002,0.59998 1.91998,1.62005 m 1.08002,0.83997 2.21997,1.38001 m 1.08001,0.84002 1.98001,1.62 m 1.07999,0.59997 2.22,1.62 m 1.07999,0.84002 1.92001,1.38001 m 1.07999,0.84003 2.22,1.61993 m 0.84,0.60004 2.22,1.61999 m 1.08002,0.83997 2.22,1.38 m 0.83999,0.84003 2.16001,1.62 m 1.13998,0.59997 2.16,1.62 m 0.84,0.84002 0.54001,0.29999 M 368.94,641.90002 h 2.45999 m 1.38001,0 h 2.45999 m 1.38001,0 h 2.76 m 1.07999,0 H 383.22 m 1.38001,0 H 387.12 m 1.38,0 h 0.78 l 1.38,1.07996 m 1.14002,0.84003 1.91998,1.38 m 1.08002,0.83997 2.21997,1.38 m 1.08002,0.84003 1.91998,1.61999 m 1.14001,0.83997 2.15998,1.38007 m 1.14001,0.83996 1.92001,1.38001 m 1.07999,0.83996 2.22,1.62 m 1.07999,0.84003 1.98001,1.38 m 1.07999,0.83997 2.22,1.61999 m 0.78,0.60004 2.22,1.61999 m 1.08002,0.83997 2.22,1.38006 m 0.83999,0.83997 2.22,1.62 m 1.07999,0.59997 2.22003,1.62 m 0.83997,0.84002 2.16003,1.38001 m 1.13999,0.84002 1.07998,0.83997 H 432.84 m -1.38001,0 H 428.94 m -1.38,0 h -2.45999 m -1.38001,0 h -2.76001 m -1.07999,0 h -2.76 m -1.08002,0 h -2.51999"
       style="fill:none;stroke:#000000;stroke-width:0.06;stroke-linecap:butt;stroke-linejoin:miter;stroke-miterlimit:10;stroke-dasharray:none;stroke-opacity:1"
       id="path109" /><path
       d="m 309.72,661.45996 h -0.30002 l 15.96002,-3 0.29999,1.62 -15.95999,3.06005"
       style="fill:#000000;fill-opacity:1;fill-rule:nonzero;stroke:none"
       id="path111" /><path
       d="m 141.12,662.29999 v -0.84003 h 168.6 v 1.68005 h -168.6 v -0.84002"
       style="fill:#000000;fill-opacity:1;fill-rule:nonzero;stroke:none"
       id="path113" /><path
       d="m 203.94,662.29999 v 0.84002 h -18.18001 v -1.68005 H 203.94 v 0.84003"
       style="fill:#000000;fill-opacity:1;fill-rule:nonzero;stroke:none"
       id="path115" /><path
       d="m 205.62,661.45996 v 1.38001 l -6.36001,4.14001 -0.83999,-1.37994 6.36,-4.14008 v 1.38001"
       style="fill:#000000;fill-opacity:1;fill-rule:nonzero;stroke:none"
       id="path117" /><path
       d="m 205.62,661.45996 -0.30001,0.84003 0.30001,0.53998"
       style="fill:#000000;fill-opacity:1;fill-rule:nonzero;stroke:none"
       id="path119" /><path
       d="m 198.72,658.15997 0.53999,-0.83996 6.36001,4.13995 -0.84,1.38001 -6.36,-4.13996 0.3,-0.54004"
       style="fill:#000000;fill-opacity:1;fill-rule:nonzero;stroke:none"
       id="path121" /><path
       d="m 141.12,646.03998 h 1.13999 V 678.62 h -2.22 V 646.03998 H 141.12"
       style="fill:#000000;fill-opacity:1;fill-rule:nonzero;stroke:none"
       id="path123" /><path
       d="m 327.06,659.53998 -0.84,-0.83997 h 172.67999 v 1.37995 H 326.22 l -0.84,-0.53998 0.84,0.53998 h -0.84 v -0.53998"
       style="fill:#000000;fill-opacity:1;fill-rule:nonzero;stroke:none"
       id="path125" /><path
       d="m 326.22,586.15997 h 0.84 v 73.38001 h -1.68 v -73.38001 h 0.84"
       style="fill:#000000;fill-opacity:1;fill-rule:nonzero;stroke:none"
       id="path127" /><path
       d="m 326.22,613.45996 v -9.65997"
       style="fill:none;stroke:#000000;stroke-width:0.06;stroke-linecap:butt;stroke-linejoin:miter;stroke-miterlimit:10;stroke-dasharray:none;stroke-opacity:1"
       id="path129" /><path
       d="m 325.67999,602.71997 h 1.07999 l 2.76001,4.38007 -0.84,0.83996 -3,-4.67999 h 1.07999"
       style="fill:#000000;fill-opacity:1;fill-rule:evenodd;stroke:none"
       id="path131" /><path
       d="m 325.67999,602.71997 0.54001,0.23999 0.53998,-0.23999"
       style="fill:#000000;fill-opacity:1;fill-rule:evenodd;stroke:none"
       id="path133" /><path
       d="m 323.22,607.70001 -0.54001,-0.59997 3,-4.38007 1.07999,0.54004 -3,4.67999 -0.53998,-0.23999"
       style="fill:#000000;fill-opacity:1;fill-rule:evenodd;stroke:none"
       id="path135" /><path
       d="M 326.51999,623.65997 V 611"
       style="fill:none;stroke:#000000;stroke-width:0.06;stroke-linecap:butt;stroke-linejoin:miter;stroke-miterlimit:10;stroke-dasharray:none;stroke-opacity:1"
       id="path137" /><path
       d="m 325.97998,609.85999 h 0.78 l 3.06003,4.74005 -0.84003,0.53997 -3,-4.68005 h 0.78"
       style="fill:#000000;fill-opacity:1;fill-rule:evenodd;stroke:none"
       id="path139" /><path
       d="m 325.97998,609.85999 0.54001,0.29998 0.23999,-0.29998"
       style="fill:#000000;fill-opacity:1;fill-rule:evenodd;stroke:none"
       id="path141" /><path
       d="m 323.45999,614.83997 -0.54001,-0.23993 3.06,-4.74005 0.78,0.59997 -2.75998,4.68005 -0.54001,-0.30004"
       style="fill:#000000;fill-opacity:1;fill-rule:evenodd;stroke:none"
       id="path143" /><path
       d="m 335.57999,586.15997 -0.84,0.84003 h -16.20001 v -1.67999 h 16.20001 l -0.78,0.83996 h 1.62 V 587 h -0.84"
       style="fill:#000000;fill-opacity:1;fill-rule:nonzero;stroke:none"
       id="path145" /><path
       d="m 334.73999,556.88 0.84,0.59998 v 28.67999 h -1.62 v -28.67999 l 0.78,0.78003 V 556.88 h 0.84 v 0.59998"
       style="fill:#000000;fill-opacity:1;fill-rule:nonzero;stroke:none"
       id="path147" /><path
       d="m 317.70001,557.47998 0.83997,-0.59998 h 16.20001 v 1.38001 h -16.20001 l 0.78003,-0.78003 h -1.62 V 556.88 h 0.83997"
       style="fill:#000000;fill-opacity:1;fill-rule:nonzero;stroke:none"
       id="path149" /><path
       d="m 318.53998,587 -0.83997,-0.84003 v -28.67999 h 1.62 v 28.67999 l -0.78003,-0.83996 V 587 h -0.83997 v -0.84003"
       style="fill:#000000;fill-opacity:1;fill-rule:nonzero;stroke:none"
       id="path151" /><text
       transform="matrix(1,0,0,-0.97288259,504.47998,620.36041)"
       style="font-variant:normal;font-weight:normal;font-stretch:normal;font-size:9.3593px;font-family:Arial;-inkscape-font-specification:ArialMT;writing-mode:lr-tb;fill:#000000;fill-opacity:1;fill-rule:nonzero;stroke:none"
       id="text155"><tspan
         x="0"
         y="0"
         id="tspan153">2</tspan></text><text
       transform="matrix(1,0,0,-0.97288259,353.81964,731.84081)"
       style="font-variant:normal;font-weight:normal;font-stretch:normal;font-size:9.3593px;font-family:Arial;-inkscape-font-specification:ArialMT;writing-mode:lr-tb;fill:#000000;fill-opacity:1;fill-rule:nonzero;stroke:none"
       id="text159"><tspan
         x="0"
         y="0"
         id="tspan157">1</tspan></text><text
       transform="matrix(1,0,0,-0.97753811,497.03998,623.66028)"
       style="font-variant:normal;font-weight:normal;font-stretch:normal;font-size:11.8552px;font-family:Arial;-inkscape-font-specification:ArialMT;writing-mode:lr-tb;fill:#000000;fill-opacity:1;fill-rule:nonzero;stroke:none"
       id="text163"><tspan
         x="0"
         y="0"
         id="tspan161">S</tspan></text><text
       transform="matrix(1,0,0,-0.97753811,344.9995,735.68086)"
       style="font-variant:normal;font-weight:normal;font-stretch:normal;font-size:11.8552px;font-family:Arial;-inkscape-font-specification:ArialMT;writing-mode:lr-tb;fill:#000000;fill-opacity:1;fill-rule:nonzero;stroke:none"
       id="text167"><tspan
         x="0"
         y="0"
         id="tspan165">S</tspan></text><text
       transform="matrix(1,0,0,-0.97753811,348.53946,662.30119)"
       style="font-variant:normal;font-weight:normal;font-stretch:normal;font-size:11.8552px;font-family:Arial;-inkscape-font-specification:ArialMT;writing-mode:lr-tb;fill:#000000;fill-opacity:1;fill-rule:nonzero;stroke:none"
       id="text171"><tspan
         x="0"
         y="0"
         id="tspan169">P</tspan></text><text
       transform="matrix(1,0,0,-0.97753811,322.37973,566.54089)"
       style="font-variant:normal;font-weight:normal;font-stretch:normal;font-size:11.8552px;font-family:Arial;-inkscape-font-specification:ArialMT;writing-mode:lr-tb;fill:#000000;fill-opacity:1;fill-rule:nonzero;stroke:none"
       id="text175"><tspan
         x="0"
         y="0"
         id="tspan173">D</tspan></text><text
       transform="matrix(1,0,0,-0.97753811,129.05954,658.16154)"
       style="font-variant:normal;font-weight:normal;font-stretch:normal;font-size:11.8552px;font-family:Arial;-inkscape-font-specification:ArialMT;writing-mode:lr-tb;fill:#000000;fill-opacity:1;fill-rule:nonzero;stroke:none"
       id="text179"><tspan
         x="0"
         y="0"
         id="tspan177">L</tspan></text><path
       d="m 458.16,658.70001 v 1.37995 l 6.35999,4.14001 0.78003,-1.38 L 459,658.70001 v 1.37995"
       style="fill:#000000;fill-opacity:1;fill-rule:nonzero;stroke:none"
       id="path181" /><path
       d="m 458.16,658.70001 0.29999,0.83997 -0.29999,0.53998"
       style="fill:#000000;fill-opacity:1;fill-rule:nonzero;stroke:none"
       id="path183" /><path
       d="M 465.06,655.40002 464.51999,654.56 458.16,658.70001 459,660.07996 465.30002,655.94 465.06,655.40002"
       style="fill:#000000;fill-opacity:1;fill-rule:nonzero;stroke:none"
       id="path185" /><path
       d="M 473.87997,659.53998 V 660.38 H 459.78 v -1.67999 h 14.09997 v 0.83997"
       style="fill:#000000;fill-opacity:1;fill-rule:nonzero;stroke:none"
       id="path187" /><path
       d="m 478.80002,660.07996 v -1.37995 L 472.5,654.56 l -0.84,1.38 6.29999,4.13996 v -1.37995"
       style="fill:#000000;fill-opacity:1;fill-rule:nonzero;stroke:none"
       id="path189" /><path
       d="m 478.80002,660.07996 -0.54004,-0.77997 0.54004,-0.59998"
       style="fill:#000000;fill-opacity:1;fill-rule:nonzero;stroke:none"
       id="path191" /><path
       d="m 471.89999,663.67999 0.60001,0.53998 6.30002,-4.14001 -0.84003,-1.37995 -6.29999,4.13996 0.23999,0.84002"
       style="fill:#000000;fill-opacity:1;fill-rule:nonzero;stroke:none"
       id="path193" /><path
       d="m 465.30002,659.29999 v -0.59998 h 11.87997 v 1.37995 h -11.87997 v -0.77997"
       style="fill:#000000;fill-opacity:1;fill-rule:nonzero;stroke:none"
       id="path195" /><text
       transform="matrix(1,0,0,-0.97753811,409.44,702.02026)"
       style="font-variant:normal;font-weight:normal;font-stretch:normal;font-size:11.8552px;font-family:Arial;-inkscape-font-specification:ArialMT;writing-mode:lr-tb;fill:#000000;fill-opacity:1;fill-rule:nonzero;stroke:none"
       id="text199"><tspan
         x="0 7.6809778 14.046029 23.694969"
         y="0"
         sodipodi:role="line"
         id="tspan197">Komp</tspan></text><text
       transform="matrix(1,0,0,-0.97753811,439.43346,702.02026)"
       style="font-variant:normal;font-weight:normal;font-stretch:normal;font-size:11.8552px;font-family:Arial;-inkscape-font-specification:ArialMT;writing-mode:lr-tb;fill:#000000;fill-opacity:1;fill-rule:nonzero;stroke:none"
       id="text203"><tspan
         x="0 6.3650517"
         y="0"
         sodipodi:role="line"
         id="tspan201">en</tspan></text><text
       transform="matrix(1,0,0,-0.97753811,452.09708,702.02026)"
       style="font-variant:normal;font-weight:normal;font-stretch:normal;font-size:11.8552px;font-family:Arial;-inkscape-font-specification:ArialMT;writing-mode:lr-tb;fill:#000000;fill-opacity:1;fill-rule:nonzero;stroke:none"
       id="text207"><tspan
         x="0"
         y="0"
         id="tspan205">s</tspan></text><text
       transform="matrix(1,0,0,-0.97753811,457.91675,702.02026)"
       style="font-variant:normal;font-weight:normal;font-stretch:normal;font-size:11.8552px;font-family:Arial;-inkscape-font-specification:ArialMT;writing-mode:lr-tb;fill:#000000;fill-opacity:1;fill-rule:nonzero;stroke:none"
       id="text211"><tspan
         x="0"
         y="0"
         id="tspan209">a</tspan></text><text
       transform="matrix(1,0,0,-0.97753811,464.21536,702.02026)"
       style="font-variant:normal;font-weight:normal;font-stretch:normal;font-size:11.8552px;font-family:Arial;-inkscape-font-specification:ArialMT;writing-mode:lr-tb;fill:#000000;fill-opacity:1;fill-rule:nonzero;stroke:none"
       id="text215"><tspan
         x="0"
         y="0"
         id="tspan213">t</tspan></text><text
       transform="matrix(1,0,0,-0.97753811,467.57745,702.02026)"
       style="font-variant:normal;font-weight:normal;font-stretch:normal;font-size:11.8552px;font-family:Arial;-inkscape-font-specification:ArialMT;writing-mode:lr-tb;fill:#000000;fill-opacity:1;fill-rule:nonzero;stroke:none"
       id="text219"><tspan
         x="0"
         y="0"
         id="tspan217">i</tspan></text><text
       transform="matrix(1,0,0,-0.97753811,470.03499,702.02026)"
       style="font-variant:normal;font-weight:normal;font-stretch:normal;font-size:11.8552px;font-family:Arial;-inkscape-font-specification:ArialMT;writing-mode:lr-tb;fill:#000000;fill-opacity:1;fill-rule:nonzero;stroke:none"
       id="text223"><tspan
         x="0"
         y="0"
         id="tspan221">o</tspan></text><text
       transform="matrix(1,0,0,-0.97753811,476.3336,702.02026)"
       style="font-variant:normal;font-weight:normal;font-stretch:normal;font-size:11.8552px;font-family:Arial;-inkscape-font-specification:ArialMT;writing-mode:lr-tb;fill:#000000;fill-opacity:1;fill-rule:nonzero;stroke:none"
       id="text227"><tspan
         x="0"
         y="0"
         id="tspan225">n</tspan></text><text
       transform="matrix(1,0,0,-0.97753811,482.6915,702.02026)"
       style="font-variant:normal;font-weight:normal;font-stretch:normal;font-size:11.8552px;font-family:Arial;-inkscape-font-specification:ArialMT;writing-mode:lr-tb;fill:#000000;fill-opacity:1;fill-rule:nonzero;stroke:none"
       id="text231"><tspan
         x="0"
         y="0"
         id="tspan229">s</tspan></text><text
       transform="matrix(1,0,0,-0.97753811,488.45189,702.02026)"
       style="font-variant:normal;font-weight:normal;font-stretch:normal;font-size:11.8552px;font-family:Arial;-inkscape-font-specification:ArialMT;writing-mode:lr-tb;fill:#000000;fill-opacity:1;fill-rule:nonzero;stroke:none"
       id="text235"><tspan
         x="0"
         y="0"
         id="tspan233">-</tspan></text><text
       transform="matrix(1,0,0,-0.97753811,409.44,689.30034)"
       style="font-variant:normal;font-weight:normal;font-stretch:normal;font-size:11.8552px;font-family:Arial;-inkscape-font-specification:ArialMT;writing-mode:lr-tb;fill:#000000;fill-opacity:1;fill-rule:nonzero;stroke:none"
       id="text239"><tspan
         x="0 6.3875766 8.8155193"
         y="0"
         sodipodi:role="line"
         id="tspan237">pla</tspan></text><text
       transform="matrix(1,0,0,-0.97753811,424.85425,689.30034)"
       style="font-variant:normal;font-weight:normal;font-stretch:normal;font-size:11.8552px;font-family:Arial;-inkscape-font-specification:ArialMT;writing-mode:lr-tb;fill:#000000;fill-opacity:1;fill-rule:nonzero;stroke:none"
       id="text243"><tspan
         x="0"
         y="0"
         id="tspan241">t</tspan></text><text
       transform="matrix(1,0,0,-0.97753811,427.91649,689.30034)"
       style="font-variant:normal;font-weight:normal;font-stretch:normal;font-size:11.8552px;font-family:Arial;-inkscape-font-specification:ArialMT;writing-mode:lr-tb;fill:#000000;fill-opacity:1;fill-rule:nonzero;stroke:none"
       id="text247"><tspan
         x="0"
         y="0"
         id="tspan245">t</tspan></text><text
       transform="matrix(1,0,0,-0.97753811,431.21819,689.30034)"
       style="font-variant:normal;font-weight:normal;font-stretch:normal;font-size:11.8552px;font-family:Arial;-inkscape-font-specification:ArialMT;writing-mode:lr-tb;fill:#000000;fill-opacity:1;fill-rule:nonzero;stroke:none"
       id="text251"><tspan
         x="0"
         y="0"
         id="tspan249">e</tspan></text><path
       d="m 353.51999,677.77997 -0.60001,0.54004 -44.57998,-32.58002 0.83999,-1.38 44.88001,32.58001 -0.54001,0.83997"
       style="fill:#0000ff;fill-opacity:1;fill-rule:nonzero;stroke:none"
       id="path253" /><text
       transform="matrix(1,0,0,-0.97753811,341.70001,598.52026)"
       style="font-variant:normal;font-weight:normal;font-stretch:normal;font-size:11.8552px;font-family:Arial;-inkscape-font-specification:ArialMT;writing-mode:lr-tb;fill:#000000;fill-opacity:1;fill-rule:nonzero;stroke:none"
       id="text257"><tspan
         x="0"
         y="0"
         id="tspan255">x</tspan></text><path
       d="m 328.13998,587.83997 1.14002,3.30004 2.16,-2.22003 -3.30002,-1.08001"
       style="fill:#000000;fill-opacity:1;fill-rule:evenodd;stroke:none"
       id="path259" /><path
       d="m 330.35999,590 9.89999,9.95996"
       style="fill:none;stroke:#000000;stroke-width:0.06;stroke-linecap:butt;stroke-linejoin:miter;stroke-miterlimit:10;stroke-dasharray:none;stroke-opacity:1"
       id="path261" /></g></svg>
