<?xml version="1.0" encoding="UTF-8" standalone="no"?>
<!-- Created with Inkscape (http://www.inkscape.org/) -->

<svg
   version="1.1"
   id="svg1351"
   xml:space="preserve"
   width="69.647667mm"
   height="73.944504mm"
   viewBox="0 0 263.23528 279.47528"
   sodipodi:docname="Michelson2.svg"
   inkscape:version="1.1.1 (3bf5ae0d25, 2021-09-20)"
   xmlns:inkscape="http://www.inkscape.org/namespaces/inkscape"
   xmlns:sodipodi="http://sodipodi.sourceforge.net/DTD/sodipodi-0.dtd"
   xmlns="http://www.w3.org/2000/svg"
   xmlns:svg="http://www.w3.org/2000/svg"><defs
     id="defs1355"><clipPath
       clipPathUnits="userSpaceOnUse"
       id="clipPath1373"><path
         d="m 258,772.45996 h 3.3 v 12.84 H 258 Z"
         id="path1371" /></clipPath><clipPath
       clipPathUnits="userSpaceOnUse"
       id="clipPath1389"><path
         d="m 202.5,764.65997 h 3.96001 v 20.64 H 202.5 Z"
         id="path1387" /></clipPath><clipPath
       clipPathUnits="userSpaceOnUse"
       id="clipPath1401"><path
         d="m 311.16,764.65997 h 3.96001 v 20.64 H 311.16 Z"
         id="path1399" /></clipPath><clipPath
       clipPathUnits="userSpaceOnUse"
       id="clipPath1413"><path
         d="m 385.80002,772.45996 h 3.3 v 12.84 h -3.3 z"
         id="path1411" /></clipPath><clipPath
       clipPathUnits="userSpaceOnUse"
       id="clipPath1429"><path
         d="m 316.38,764.65997 h 3.96001 v 20.64 H 316.38 Z"
         id="path1427" /></clipPath><clipPath
       clipPathUnits="userSpaceOnUse"
       id="clipPath1441"><path
         d="M 438.95999,764.65997 H 442.92 v 20.64 h -3.96001 z"
         id="path1439" /></clipPath><clipPath
       clipPathUnits="userSpaceOnUse"
       id="clipPath1551"><path
         d="m 420.12,773.12 h 5.52 v 12.17999 h -5.52 z"
         id="path1549" /></clipPath><clipPath
       clipPathUnits="userSpaceOnUse"
       id="clipPath1563"><path
         d="m 397.20001,773.12 h 5.52 v 12.17999 h -5.52 z"
         id="path1561" /></clipPath><clipPath
       clipPathUnits="userSpaceOnUse"
       id="clipPath1575"><path
         d="m 369.78,773.12 h 5.52 v 12.17999 h -5.52 z"
         id="path1573" /></clipPath><clipPath
       clipPathUnits="userSpaceOnUse"
       id="clipPath1587"><path
         d="m 326.22,773.12 h 5.52 v 12.17999 h -5.52 z"
         id="path1585" /></clipPath><clipPath
       clipPathUnits="userSpaceOnUse"
       id="clipPath1599"><path
         d="m 300.72,773.12 h 5.52 v 12.17999 h -5.52 z"
         id="path1597" /></clipPath><clipPath
       clipPathUnits="userSpaceOnUse"
       id="clipPath1611"><path
         d="m 292.32001,773.12 h 5.52 v 12.17999 h -5.52 z"
         id="path1609" /></clipPath><clipPath
       clipPathUnits="userSpaceOnUse"
       id="clipPath1623"><path
         d="m 269.39999,773.12 h 5.52 v 12.17999 h -5.52 z"
         id="path1621" /></clipPath><clipPath
       clipPathUnits="userSpaceOnUse"
       id="clipPath1857"><path
         d="m 272.94,601.15997 h 6.60001 v 14.16 H 272.94 Z"
         id="path1855" /></clipPath><clipPath
       clipPathUnits="userSpaceOnUse"
       id="clipPath2199"><path
         d="m 318.12,111.14 h 6.60001 v 14.22 H 318.12 Z"
         id="path2197" /></clipPath></defs><sodipodi:namedview
     id="namedview1353"
     pagecolor="#505050"
     bordercolor="#ffffff"
     borderopacity="1"
     inkscape:pageshadow="0"
     inkscape:pageopacity="0"
     inkscape:pagecheckerboard="1"
     showgrid="false"
     units="mm"
     lock-margins="true"
     fit-margin-top="5"
     fit-margin-left="5"
     fit-margin-right="5"
     fit-margin-bottom="5"
     inkscape:zoom="0.54691207"
     inkscape:cx="158.16071"
     inkscape:cy="43.882739"
     inkscape:window-width="1368"
     inkscape:window-height="842"
     inkscape:window-x="-6"
     inkscape:window-y="-6"
     inkscape:window-maximized="1"
     inkscape:current-layer="g1357"
     inkscape:document-units="mm" /><g
     id="g1357"
     inkscape:groupmode="layer"
     inkscape:label="V401_anleitung"
     transform="matrix(1.3333333,0,0,-1.3333333,-236.86234,605.56429)"><path
       d="m 351.66,329.89999 h 1.19999 V 373.94 h -2.4 V 329.89999 H 351.66"
       style="fill:#000000;fill-opacity:1;fill-rule:nonzero;stroke:none"
       id="path1967" /><path
       d="m 360.30002,365 0.59997,0.89999 -8.94,4.13999 -0.89999,-1.5 8.94,-4.43997 0.30002,0.89999"
       style="fill:#000000;fill-opacity:1;fill-rule:nonzero;stroke:none"
       id="path1969" /><path
       d="m 360.30002,360.5 0.59997,0.89999 -8.94,4.5 -0.89999,-1.79998 8.94,-4.14002 0.30002,0.54001"
       style="fill:#000000;fill-opacity:1;fill-rule:nonzero;stroke:none"
       id="path1971" /><path
       d="m 360.30002,356.06 0.59997,0.89999 -8.94,4.44 -0.89999,-1.44 8.94,-4.5 0.30002,0.60001"
       style="fill:#000000;fill-opacity:1;fill-rule:nonzero;stroke:none"
       id="path1973" /><path
       d="m 360.30002,369.44 0.59997,0.59998 -8.94,4.5 -0.89999,-1.5 8.94,-4.5 0.30002,0.90002"
       style="fill:#000000;fill-opacity:1;fill-rule:nonzero;stroke:none"
       id="path1975" /><path
       d="m 360.30002,347.41998 0.59997,0.90003 -8.94,4.19998 -0.89999,-1.5 8.94,-4.5 0.30002,0.89999"
       style="fill:#000000;fill-opacity:1;fill-rule:nonzero;stroke:none"
       id="path1977" /><path
       d="m 360.30002,342.97998 0.59997,0.90002 -8.94,4.44001 -0.89999,-1.80002 8.94,-4.13999 0.30002,0.59998"
       style="fill:#000000;fill-opacity:1;fill-rule:nonzero;stroke:none"
       id="path1979" /><path
       d="m 360.30002,334.34 0.59997,0.6 -8.94,4.44 -0.89999,-1.44 8.94,-4.5 0.30002,0.9"
       style="fill:#000000;fill-opacity:1;fill-rule:nonzero;stroke:none"
       id="path1981" /><path
       d="m 360.30002,338.47998 0.59997,0.90002 -8.94,4.5 -0.89999,-1.5 8.94,-4.44 0.30002,0.53998"
       style="fill:#000000;fill-opacity:1;fill-rule:nonzero;stroke:none"
       id="path1983" /><path
       d="m 360.30002,329.89999 0.59997,0.60001 -8.94,4.44 -0.89999,-1.5 8.94,-4.44 0.30002,0.89999"
       style="fill:#000000;fill-opacity:1;fill-rule:nonzero;stroke:none"
       id="path1985" /><path
       d="m 360.30002,351.91998 0.59997,0.60001 -8.94,4.44 -0.89999,-1.5 8.94,-4.44 0.30002,0.89999"
       style="fill:#000000;fill-opacity:1;fill-rule:nonzero;stroke:none"
       id="path1987" /><path
       d="m 294.41998,431.06 v 1.19998 H 250.25999 V 429.56 h 44.15999 v 1.5"
       style="fill:#000000;fill-opacity:1;fill-rule:nonzero;stroke:none"
       id="path1989" /><path
       d="M 259.20001,439.70001 258.30002,440 l -4.14003,-8.64001 1.5,-0.9 4.44002,8.94 -0.9,0.30002"
       style="fill:#000000;fill-opacity:1;fill-rule:nonzero;stroke:none"
       id="path1991" /><path
       d="M 263.70001,439.70001 262.80002,440 l -4.5,-8.64001 1.79999,-0.9 4.20001,8.94 -0.60001,0.30002"
       style="fill:#000000;fill-opacity:1;fill-rule:nonzero;stroke:none"
       id="path1993" /><path
       d="M 267.84,439.70001 267.23999,440 l -4.43997,-8.64001 1.5,-0.9 4.43997,8.94 -0.89999,0.30002"
       style="fill:#000000;fill-opacity:1;fill-rule:nonzero;stroke:none"
       id="path1995" /><path
       d="m 254.75999,439.70001 -0.6,0.29999 -4.5,-8.64001 1.5,-0.9 4.5,8.94 -0.9,0.30002"
       style="fill:#000000;fill-opacity:1;fill-rule:nonzero;stroke:none"
       id="path1997" /><path
       d="M 276.78,439.70001 275.94,440 l -4.20001,-8.64001 1.5,-0.9 4.44,8.94 -0.89999,0.30002"
       style="fill:#000000;fill-opacity:1;fill-rule:nonzero;stroke:none"
       id="path1999" /><path
       d="m 281.28,439.70001 -0.9,0.29999 -4.44,-8.64001 1.73999,-0.9 4.20001,8.94 -0.6,0.30002"
       style="fill:#000000;fill-opacity:1;fill-rule:nonzero;stroke:none"
       id="path2001" /><path
       d="M 289.91998,439.70001 289.32001,440 284.88,431.35999 l 1.44001,-0.9 4.5,8.94 -0.90003,0.30002"
       style="fill:#000000;fill-opacity:1;fill-rule:nonzero;stroke:none"
       id="path2003" /><path
       d="M 285.47998,439.70001 284.88,440 l -4.5,-8.64001 1.5,-0.9 4.44001,8.94 -0.84003,0.30002"
       style="fill:#000000;fill-opacity:1;fill-rule:nonzero;stroke:none"
       id="path2005" /><path
       d="M 294.41998,439.70001 293.51999,440 l -4.19998,-8.64001 1.5,-0.9 4.5,8.94 -0.90003,0.30002"
       style="fill:#000000;fill-opacity:1;fill-rule:nonzero;stroke:none"
       id="path2007" /><path
       d="M 272.34,439.70001 271.73999,440 l -4.5,-8.64001 1.5,-0.9 4.5,8.94 -0.89999,0.30002"
       style="fill:#000000;fill-opacity:1;fill-rule:nonzero;stroke:none"
       id="path2009" /><path
       d="m 193.31999,334.34 h 1.2 v 35.1 h -2.7 v -35.1 h 1.5"
       style="fill:#000000;fill-opacity:1;fill-rule:nonzero;stroke:none"
       id="path2011" /><path
       d="m 282.17999,290.30002 -0.89999,0.89999 h -17.57999 v -1.80002 H 281.28 l -0.9,0.90003 h 1.79999 v 0.89999 H 281.28"
       style="fill:#000000;fill-opacity:1;fill-rule:nonzero;stroke:none"
       id="path2013" /><path
       d="m 281.28,258.73999 0.89999,0.60001 v 30.96002 H 280.38 V 259.34 l 0.9,0.89999 v -1.5 h 0.89999 V 259.34"
       style="fill:#000000;fill-opacity:1;fill-rule:nonzero;stroke:none"
       id="path2015" /><path
       d="m 262.80002,259.34 0.89999,-0.60001 H 281.28 v 1.5 h -17.57999 l 0.9,-0.89999 h -1.79999 v -0.60001 h 0.89999"
       style="fill:#000000;fill-opacity:1;fill-rule:nonzero;stroke:none"
       id="path2017" /><path
       d="m 263.70001,291.20001 -0.89999,-0.89999 V 259.34 h 1.79999 v 30.96002 l -0.9,-0.90003 v 1.80002 h -0.89999 v -0.89999"
       style="fill:#000000;fill-opacity:1;fill-rule:nonzero;stroke:none"
       id="path2019" /><text
       transform="matrix(1,0,0,-0.97395481,285.47998,268.22031)"
       style="font-variant:normal;font-weight:normal;font-stretch:normal;font-size:12.8323px;font-family:Arial;-inkscape-font-specification:ArialMT;writing-mode:lr-tb;fill:#000000;fill-opacity:1;fill-rule:nonzero;stroke:none"
       id="text2023"><tspan
         x="0"
         y="0"
         id="tspan2021">D</tspan></text><text
       transform="matrix(1,0,0,-0.97395481,193.37994,320.90106)"
       style="font-variant:normal;font-weight:normal;font-stretch:normal;font-size:12.8323px;font-family:Arial;-inkscape-font-specification:ArialMT;writing-mode:lr-tb;fill:#000000;fill-opacity:1;fill-rule:nonzero;stroke:none"
       id="text2027"><tspan
         x="0"
         y="0"
         id="tspan2025">L</tspan></text><path
       d="m 351.66,351.91998 v 0.90003 H 193.31999 v -1.80002 H 351.66 v 0.89999"
       style="fill:#000000;fill-opacity:1;fill-rule:nonzero;stroke:none"
       id="path2029" /><path
       d="m 272.34,431.06 h -0.9 V 290.30002 h 1.79999 V 431.06 H 272.34"
       style="fill:#000000;fill-opacity:1;fill-rule:nonzero;stroke:none"
       id="path2031" /><path
       d="M 250.25999,387.01999 H 272.34 m -22.08001,17.51999 H 272.34"
       style="fill:none;stroke:#000000;stroke-width:0.06;stroke-linecap:round;stroke-linejoin:round;stroke-miterlimit:10;stroke-dasharray:none;stroke-opacity:1"
       id="path2033" /><path
       d="m 289.91998,369.44 -0.89999,0.9 -35.15999,-35.10001 1.79999,-1.79999 35.16002,35.09998 -0.90003,0.90002"
       style="fill:#000000;fill-opacity:1;fill-rule:nonzero;stroke:none"
       id="path2035" /><path
       d="m 291.41998,301.28 -11.94,-7.67999"
       style="fill:none;stroke:#000000;stroke-width:0.06;stroke-linecap:round;stroke-linejoin:round;stroke-miterlimit:10;stroke-dasharray:none;stroke-opacity:1"
       id="path2037" /><path
       d="m 276.54001,291.80002 3.83999,0.29999 -1.80001,2.94 -2.03998,-3.23999"
       style="fill:#000000;fill-opacity:1;fill-rule:evenodd;stroke:none"
       id="path2039" /><path
       d="m 254.75999,413.47998 v -5.34"
       style="fill:none;stroke:#000000;stroke-width:0.06;stroke-linecap:round;stroke-linejoin:round;stroke-miterlimit:10;stroke-dasharray:none;stroke-opacity:1"
       id="path2041" /><path
       d="m 254.75999,404.53998 1.80001,3.6 h -3.60001 l 1.8,-3.6"
       style="fill:#000000;fill-opacity:1;fill-rule:evenodd;stroke:none"
       id="path2043" /><path
       d="m 254.75999,378.07999 v 5.33999"
       style="fill:none;stroke:#000000;stroke-width:0.06;stroke-linecap:round;stroke-linejoin:round;stroke-miterlimit:10;stroke-dasharray:none;stroke-opacity:1"
       id="path2045" /><path
       d="m 254.75999,387.01999 -1.8,-3.60001 H 256.56 l -1.80001,3.60001"
       style="fill:#000000;fill-opacity:1;fill-rule:evenodd;stroke:none"
       id="path2047" /><path
       d="m 263.70001,387.01999 h 17.58 v 17.52 h -17.58 z"
       style="fill:#ccccff;fill-opacity:1;fill-rule:nonzero;stroke:none"
       id="path2049" /><path
       d="m 282.47998,404.53998 -1.19998,1.20001 h -17.57999 v -2.34 H 281.28 l -1.20001,1.13999 h 2.39999 v 1.20001 H 281.28"
       style="fill:#000000;fill-opacity:1;fill-rule:nonzero;stroke:none"
       id="path2051" /><path
       d="m 281.28,385.81998 1.19998,1.20001 v 17.51999 h -2.39999 V 387.01999 L 281.28,388.22 v -2.40002 h 1.19998 v 1.20001"
       style="fill:#000000;fill-opacity:1;fill-rule:nonzero;stroke:none"
       id="path2053" /><path
       d="m 262.5,387.01999 1.20001,-1.20001 H 281.28 V 388.22 h -17.57999 l 1.19998,-1.20001 H 262.5 v -1.20001 h 1.20001"
       style="fill:#000000;fill-opacity:1;fill-rule:nonzero;stroke:none"
       id="path2055" /><path
       d="M 263.70001,405.73999 262.5,404.53998 v -17.51999 h 2.39999 v 17.51999 l -1.19998,-1.13999 v 2.34 H 262.5 v -1.20001"
       style="fill:#000000;fill-opacity:1;fill-rule:nonzero;stroke:none"
       id="path2057" /><text
       transform="matrix(1,0,0,-0.97395481,234.78,360.50031)"
       style="font-variant:normal;font-weight:normal;font-stretch:normal;font-size:12.8323px;font-family:Arial;-inkscape-font-specification:ArialMT;writing-mode:lr-tb;fill:#000000;fill-opacity:1;fill-rule:nonzero;stroke:none"
       id="text2061"><tspan
         x="0 6.8986497"
         y="0"
         sodipodi:role="line"
         id="tspan2059">n+</tspan></text><text
       transform="matrix(1,0,0,-0.97395481,256.55893,360.50031)"
       style="font-variant:normal;font-weight:normal;font-stretch:normal;font-size:12.8323px;font-family:Arial;-inkscape-font-specification:ArialMT;writing-mode:lr-tb;fill:#000000;fill-opacity:1;fill-rule:nonzero;stroke:none"
       id="text2065"><tspan
         x="0"
         y="0"
         id="tspan2063">n</tspan></text><text
       transform="matrix(0.99371104,0,0,-1,249.12,360.50031)"
       style="font-variant:normal;font-weight:normal;font-stretch:normal;font-size:12.4981px;font-family:Symbol;-inkscape-font-specification:SymbolMT;writing-mode:lr-tb;fill:#000000;fill-opacity:1;fill-rule:nonzero;stroke:none"
       id="text2069"><tspan
         x="0"
         y="0"
         id="tspan2067">∆</tspan></text><text
       transform="matrix(1,0,0,-0.97395481,294.72,299.18039)"
       style="font-variant:normal;font-weight:normal;font-stretch:normal;font-size:12.8323px;font-family:Arial;-inkscape-font-specification:ArialMT;writing-mode:lr-tb;fill:#000000;fill-opacity:1;fill-rule:nonzero;stroke:none"
       id="text2073"><tspan
         x="0"
         y="0"
         id="tspan2071">x</tspan></text><path
       d="m 258.30002,371.84 10.43997,19.91998"
       style="fill:none;stroke:#000000;stroke-width:0.06;stroke-linecap:round;stroke-linejoin:round;stroke-miterlimit:10;stroke-dasharray:none;stroke-opacity:1"
       id="path2075" /><text
       transform="matrix(1,0,0,-0.97395481,250.62,391.4603)"
       style="font-variant:normal;font-weight:normal;font-stretch:normal;font-size:12.8323px;font-family:Arial;-inkscape-font-specification:ArialMT;writing-mode:lr-tb;fill:#000000;fill-opacity:1;fill-rule:nonzero;stroke:none"
       id="text2079"><tspan
         x="0"
         y="0"
         id="tspan2077">b</tspan></text></g></svg>
